<?xml version="1.0" encoding="utf-8"?>
<!-- Generator: Adobe Illustrator 19.0.0, SVG Export Plug-In . SVG Version: 6.00 Build 0)  -->
<svg version="1.1" xmlns="http://www.w3.org/2000/svg" xmlns:xlink="http://www.w3.org/1999/xlink" x="0px" y="0px"
	 viewBox="0 0 300 300" style="enable-background:new 0 0 300 300;" xml:space="preserve">
<style type="text/css">
	.st0{fill:#283028;}
	.st1{fill:#FFFFFF;}
	.st2{fill:#2B6E36;}
	.st3{fill:#BA902A;}
	.st4{fill:#E0C95A;}
	.st5{fill:#398E43;}
	.st6{fill:#D6B736;}
	.st7{fill:#1F491F;stroke:#E8EAEA;stroke-width:3;stroke-miterlimit:10;}
	.st8{fill:#1F491F;}
	.st9{fill:#9B3645;}
	.st10{fill:none;stroke:#D6B736;stroke-miterlimit:10;}
	.st11{fill:none;stroke:#2B6E36;stroke-width:7;stroke-miterlimit:10;}
	.st12{fill:#D7E0D3;}
</style>
<g id="Layer_2">
	<rect id="XMLID_136_" x="-2610" y="0.1" class="st0" width="960" height="559.9"/>
	<g id="XMLID_137_">
		<g id="XMLID_144_">
			<path id="XMLID_155_" class="st1" d="M-2200.2,488.5v-5c0-0.8,0.3-1.1,1-1.1h1.8c0.7,0,1,0.4,1,1.1v4.9c0,4.3,1.1,7.6,3.4,10
				c2.3,2.4,5.5,3.6,9.6,3.6h15c4.2,0,7.4-1.2,9.6-3.6c2.3-2.4,3.4-5.8,3.4-10v-6.3c0-3.9-1.5-7-4.6-9.3c-3.1-2.3-6.8-4-11.2-5
				c-4.4-1-8.8-2.1-13.2-3.1c-4.4-1-8.1-2.8-11.2-5.2c-3.1-2.4-4.6-5.7-4.6-9.9V442c0-5.2,1.5-9.3,4.6-12.4c3-3.1,7.1-4.6,12.2-4.6
				h15c5.1,0,9.2,1.5,12.2,4.6c3,3.1,4.6,7.2,4.6,12.4v3.8c0,0.8-0.3,1.1-1,1.1h-1.8c-0.7,0-1-0.4-1-1.1v-3.6c0-4.3-1.1-7.6-3.4-10
				c-2.3-2.4-5.5-3.6-9.6-3.6h-15c-4.2,0-7.4,1.2-9.6,3.6c-2.3,2.4-3.4,5.8-3.4,10v7.3c0,6.2,5.3,10.4,15.8,12.8
				c4.4,0.9,8.8,1.9,13.2,3.1c4.4,1.1,8.1,3,11.2,5.8c3.1,2.7,4.6,6.3,4.6,10.8v6.6c0,5.2-1.5,9.3-4.6,12.4
				c-3.1,3.1-7.1,4.6-12.2,4.6h-15c-5.1,0-9.2-1.5-12.2-4.6C-2198.7,497.8-2200.2,493.7-2200.2,488.5z"/>
			<path id="XMLID_153_" class="st1" d="M-2127.2,445.2h-8.3c-0.8,0-1.1-0.3-1.1-1v-1.5c0-0.7,0.4-1,1.1-1h8.3c0.8,0,1.1-0.3,1.1-1
				v-9.8c0-0.8,0.3-1.1,1-1.1h1.8c0.7,0,1,0.4,1,1.1v9.8c0,0.7,0.4,1,1.1,1h16.2c0.8,0,1.1,0.3,1.1,1v1.5c0,0.7-0.4,1-1.1,1h-16.2
				c-0.8,0-1.1,0.3-1.1,1v42.6c0,4.2,1.2,7.4,3.7,9.8c2.5,2.3,5.8,3.5,10.1,3.5h4.8c0.8,0,1.1,0.3,1.1,1v1.5c0,0.7-0.4,1-1.1,1h-4.8
				c-5.2,0-9.4-1.5-12.7-4.5c-3.3-3-4.9-7.1-4.9-12.2v-42.7C-2126.1,445.5-2126.5,445.2-2127.2,445.2z"/>
			<path id="XMLID_150_" class="st1" d="M-2060.8,505.5h-10.6c-5.1,0-9.2-1.5-12.2-4.6c-3-3.1-4.6-7.2-4.6-12.4v-29.8
				c0-5.2,1.5-9.3,4.6-12.4c3-3.1,7.1-4.6,12.2-4.6h10.6c5.1,0,9.2,1.5,12.2,4.6c3,3.1,4.6,7.2,4.6,12.4v29.8
				c0,5.2-1.5,9.3-4.6,12.4C-2051.7,504-2055.7,505.5-2060.8,505.5z M-2071.5,502h10.6c4.2,0,7.4-1.2,9.6-3.6
				c2.3-2.4,3.4-5.8,3.4-10v-29.6c0-4.3-1.1-7.6-3.4-10c-2.3-2.4-5.5-3.6-9.6-3.6h-10.6c-4.2,0-7.4,1.2-9.6,3.6
				c-2.3,2.4-3.4,5.8-3.4,10v29.6c0,4.3,1.1,7.6,3.4,10C-2078.9,500.8-2075.7,502-2071.5,502z"/>
			<path id="XMLID_148_" class="st1" d="M-1990.8,503v1.5c0,0.7-0.4,1-1.1,1h-17.8c-5.1,0-9.2-1.5-12.2-4.6c-3-3.1-4.6-7.2-4.6-12.4
				v-29.8c0-5.2,1.5-9.3,4.6-12.4c3-3.1,7.1-4.6,12.2-4.6h17.8c0.8,0,1.1,0.3,1.1,1v1.5c0,0.7-0.4,1-1.1,1h-17.8
				c-4.2,0-7.4,1.2-9.6,3.6c-2.3,2.4-3.4,5.8-3.4,10v29.6c0,4.3,1.1,7.6,3.4,10c2.3,2.4,5.5,3.6,9.6,3.6h17.8
				C-1991.2,502-1990.8,502.4-1990.8,503z"/>
			<path id="XMLID_145_" class="st1" d="M-1973.7,505.5h-1.8c-0.7,0-1-0.4-1-1.1v-85.8c0-0.8,0.3-1.1,1-1.1h1.8c0.7,0,1,0.4,1,1.1
				v85.8C-1972.6,505.2-1973,505.5-1973.7,505.5z M-1940.6,441.7h1.8c0.9,0,1.1,0.4,0.5,1.1l-19.9,29.4v0.5l22.5,31.7
				c0.6,0.8,0.5,1.1-0.4,1.1h-2.1c-0.9,0-1.7-0.4-2.3-1.1l-21.9-31.2c-0.3-0.5-0.3-1,0-1.5l19.8-29.2
				C-1942.2,442-1941.5,441.7-1940.6,441.7z"/>
		</g>
		<g id="XMLID_141_">
			<polygon id="XMLID_143_" class="st1" points="-2220.7,442.5 -2222,445.2 -2222.2,445.5 -2251.6,504.9 -2281.1,445.2 
				-2281.1,445.2 -2282.7,442.1 -2275.6,442.1 -2251.6,490.8 -2227.6,442.5 			"/>
			<polygon id="XMLID_142_" class="st1" points="-2227.6,442.5 -2227.6,442.5 -2227.6,442.4 			"/>
		</g>
		<g id="XMLID_138_">
			<line id="XMLID_140_" class="st2" x1="-2281.1" y1="445.2" x2="-2281.1" y2="445.2"/>
			<polygon id="XMLID_139_" class="st2" points="-1986.3,395.4 -1986.3,395.4 -2007.2,353 -2031.3,401.7 -2093.3,276.2 
				-2146.7,384.3 -2173,331.9 -2227.6,442.5 -2227.6,442.4 -2227.6,442.5 -2220.7,442.5 -2173,345.9 -2146.6,398.3 -2093.3,290.3 
				-2031.3,415.8 -2007.2,367.1 -1992,398.2 -1985,398.3 			"/>
		</g>
	</g>
	<rect id="XMLID_316_" x="-1630" y="0.1" class="st0" width="960" height="559.9"/>
	<g id="XMLID_294_">
		<g id="XMLID_303_">
			<path id="XMLID_314_" class="st1" d="M-1241.2,334.9v-5c0-0.8,0.3-1.1,1-1.1h1.8c0.7,0,1,0.4,1,1.1v4.9c0,4.3,1.1,7.6,3.4,10
				c2.3,2.4,5.5,3.6,9.6,3.6h15c4.2,0,7.4-1.2,9.6-3.6c2.3-2.4,3.4-5.8,3.4-10v-6.3c0-3.9-1.5-7-4.6-9.3c-3.1-2.3-6.8-4-11.2-5
				c-4.4-1-8.8-2.1-13.2-3.1c-4.4-1-8.1-2.8-11.2-5.2c-3.1-2.4-4.6-5.7-4.6-9.9v-7.5c0-5.2,1.5-9.3,4.6-12.4c3-3.1,7.1-4.6,12.2-4.6
				h15c5.1,0,9.2,1.5,12.2,4.6c3,3.1,4.6,7.2,4.6,12.4v3.8c0,0.8-0.3,1.1-1,1.1h-1.8c-0.7,0-1-0.4-1-1.1v-3.6c0-4.3-1.1-7.6-3.4-10
				c-2.3-2.4-5.5-3.6-9.6-3.6h-15c-4.2,0-7.4,1.2-9.6,3.6c-2.3,2.4-3.4,5.8-3.4,10v7.3c0,6.2,5.3,10.4,15.8,12.8
				c4.4,0.9,8.8,1.9,13.2,3.1c4.4,1.1,8.1,3,11.2,5.8c3.1,2.7,4.6,6.3,4.6,10.8v6.6c0,5.2-1.5,9.3-4.6,12.4
				c-3.1,3.1-7.1,4.6-12.2,4.6h-15c-5.1,0-9.2-1.5-12.2-4.6C-1239.7,344.2-1241.2,340.1-1241.2,334.9z"/>
			<path id="XMLID_312_" class="st1" d="M-1168.2,291.5h-8.3c-0.8,0-1.1-0.3-1.1-1V289c0-0.7,0.4-1,1.1-1h8.3c0.8,0,1.1-0.3,1.1-1
				v-9.8c0-0.8,0.3-1.1,1-1.1h1.8c0.7,0,1,0.4,1,1.1v9.8c0,0.7,0.4,1,1.1,1h16.2c0.8,0,1.1,0.3,1.1,1v1.5c0,0.7-0.4,1-1.1,1h-16.2
				c-0.8,0-1.1,0.3-1.1,1v42.6c0,4.2,1.2,7.4,3.7,9.8c2.5,2.3,5.8,3.5,10.1,3.5h4.8c0.8,0,1.1,0.3,1.1,1v1.5c0,0.7-0.4,1-1.1,1h-4.8
				c-5.2,0-9.4-1.5-12.7-4.5c-3.3-3-4.9-7.1-4.9-12.2v-42.7C-1167.1,291.9-1167.5,291.5-1168.2,291.5z"/>
			<path id="XMLID_309_" class="st1" d="M-1101.8,351.9h-10.6c-5.1,0-9.2-1.5-12.2-4.6c-3-3.1-4.6-7.2-4.6-12.4v-29.8
				c0-5.2,1.5-9.3,4.6-12.4c3-3.1,7.1-4.6,12.2-4.6h10.6c5.1,0,9.2,1.5,12.2,4.6c3,3.1,4.6,7.2,4.6,12.4v29.8
				c0,5.2-1.5,9.3-4.6,12.4C-1092.7,350.4-1096.7,351.9-1101.8,351.9z M-1112.5,348.4h10.6c4.2,0,7.4-1.2,9.6-3.6
				c2.3-2.4,3.4-5.8,3.4-10v-29.6c0-4.3-1.1-7.6-3.4-10c-2.3-2.4-5.5-3.6-9.6-3.6h-10.6c-4.2,0-7.4,1.2-9.6,3.6
				c-2.3,2.4-3.4,5.8-3.4,10v29.6c0,4.3,1.1,7.6,3.4,10C-1119.9,347.2-1116.7,348.4-1112.5,348.4z"/>
			<path id="XMLID_307_" class="st1" d="M-1031.8,349.4v1.5c0,0.7-0.4,1-1.1,1h-17.8c-5.1,0-9.2-1.5-12.2-4.6
				c-3-3.1-4.6-7.2-4.6-12.4v-29.8c0-5.2,1.5-9.3,4.6-12.4c3-3.1,7.1-4.6,12.2-4.6h17.8c0.8,0,1.1,0.3,1.1,1v1.5c0,0.7-0.4,1-1.1,1
				h-17.8c-4.2,0-7.4,1.2-9.6,3.6c-2.3,2.4-3.4,5.8-3.4,10v29.6c0,4.3,1.1,7.6,3.4,10c2.3,2.4,5.5,3.6,9.6,3.6h17.8
				C-1032.2,348.4-1031.8,348.7-1031.8,349.4z"/>
			<path id="XMLID_304_" class="st1" d="M-1014.7,351.9h-1.8c-0.7,0-1-0.4-1-1.1V265c0-0.8,0.3-1.1,1-1.1h1.8c0.7,0,1,0.4,1,1.1
				v85.8C-1013.6,351.5-1014,351.9-1014.7,351.9z M-981.6,288h1.8c0.9,0,1.1,0.4,0.5,1.1l-19.9,29.4v0.5l22.5,31.7
				c0.6,0.8,0.5,1.1-0.4,1.1h-2.1c-0.9,0-1.7-0.4-2.3-1.1l-21.9-31.2c-0.3-0.5-0.3-1,0-1.5l19.8-29.2
				C-983.2,288.3-982.5,288-981.6,288z"/>
		</g>
		<g id="XMLID_298_">
			<polygon id="XMLID_302_" class="st1" points="-1261.7,288.8 -1263,291.6 -1263.2,291.9 -1292.6,351.3 -1322.1,291.5 
				-1322.1,291.5 -1323.7,288.5 -1316.6,288.5 -1292.6,337.2 -1268.6,288.8 			"/>
			<polygon id="XMLID_299_" class="st1" points="-1268.6,288.8 -1268.6,288.8 -1268.6,288.8 			"/>
		</g>
		<g id="XMLID_295_">
			<line id="XMLID_297_" class="st2" x1="-1322.1" y1="291.5" x2="-1322.1" y2="291.5"/>
			<polygon id="XMLID_296_" class="st2" points="-1027.3,241.8 -1027.3,241.8 -1048.2,199.4 -1072.3,248 -1134.3,122.6 
				-1187.7,230.7 -1214,178.3 -1268.6,288.8 -1268.6,288.8 -1268.6,288.8 -1261.7,288.8 -1214,192.3 -1187.6,244.7 -1134.3,136.7 
				-1072.3,262.1 -1048.2,213.5 -1033,244.6 -1026,244.6 			"/>
		</g>
	</g>
</g>
<g id="Layer_1">
	<rect id="XMLID_533_" x="-1507" y="97" class="st0" width="65" height="63"/>
	<g id="XMLID_46_">
		<rect id="XMLID_4_" x="-2012" y="207" class="st3" width="50" height="5"/>
		<rect id="XMLID_6_" x="-2014" y="212" class="st3" width="55" height="8"/>
		<path id="XMLID_5_" class="st4" d="M-1951.3,96.4c0,0,6.2,0.6,9.9-6.4h15.9c0,0-17.6,64.6-44.6,64.7l5.1-7.5c0,0,18-6.1,31.6-51.1
			h-5.2c0,0-9.3,11.8-17.1,7.2L-1951.3,96.4z"/>
		<path id="XMLID_7_" class="st4" d="M-2020.5,96.4c0,0-6.2,2.7-9.9-6.4h-15.9c0,0,17.6,64.6,44.6,64.7l-5.1-7.5
			c0,0-18-6.1-31.6-51.1h5.2c0,0,9.3,11.8,17.1,7.2L-2020.5,96.4z"/>
		<path id="XMLID_16_" class="st4" d="M-1961,207h-49.4c14.9,0,21.1-28,21.1-28s-5.8-1.8-5.4-4c0.5-2.2,3.6-4.9,3.6-4.9v-8h8v8
			c0,0,4.5,2.5,4.9,4.8c0.4,2.2-4.2,4.2-4.2,4.2S-1975.9,207-1961,207z"/>
		<path id="XMLID_17_" class="st4" d="M-1986.2,163.9c-32.5,0-35.8-73.9-35.8-73.9h71.5C-1950.5,90-1953.7,163.9-1986.2,163.9z"/>
		<polygon id="XMLID_2_" class="st2" points="-1953.7,185.3 -1945.3,178.1 -1933,180.3 -1944.5,189.1 		"/>
		<polygon id="XMLID_8_" class="st5" points="-1953.3,183.7 -1956,173 -1948.5,163 -1945.8,177.3 		"/>
		<polygon id="XMLID_10_" class="st2" points="-1939.7,172.9 -1934.2,166.6 -1924.7,167.1 -1932.5,174.8 		"/>
		<polygon id="XMLID_9_" class="st5" points="-1939.6,171.7 -1942.7,163.9 -1938,155.7 -1934.6,166.1 		"/>
		<polygon id="XMLID_11_" class="st5" points="-1930,161.7 -1933.1,153.9 -1928.4,145.7 -1925,156.1 		"/>
		<polygon id="XMLID_15_" class="st2" points="-2016.8,185.3 -2025.1,178.1 -2037.4,180.3 -2026,189.1 		"/>
		<polygon id="XMLID_14_" class="st5" points="-2017.1,183.7 -2014.4,173 -2022,163 -2024.7,177.3 		"/>
		<polygon id="XMLID_13_" class="st2" points="-2030.7,172.9 -2036.3,166.6 -2045.7,167.1 -2038,174.8 		"/>
		<polygon id="XMLID_12_" class="st5" points="-2030.8,171.7 -2027.8,163.9 -2032.4,155.7 -2035.8,166.1 		"/>
		<polygon id="XMLID_3_" class="st5" points="-2040.4,161.7 -2037.3,153.9 -2042,145.7 -2045.4,156.1 		"/>
		<path id="XMLID_1_" class="st6" d="M-1986,90v74c0,0-29,3.7-36-74H-1986z"/>
		<path id="XMLID_18_" class="st6" d="M-1986,162v45h-24.1c0,0,15.9-3.3,20.9-28c0,0-5.6-1.5-5.4-4c0.2-2.5,3.6-4.9,3.6-4.9v-8
			H-1986z"/>
		<path id="XMLID_19_" class="st3" d="M-1992.9,172.7c0,0,6.4,6.8,13.8,0c0,0,3.7,3-3,6.3C-1988.9,182.2-1997.1,176.3-1992.9,172.7z
			"/>
	</g>
	<g id="XMLID_53_">
		<rect id="XMLID_30_" x="-2150" y="71" class="st2" width="4" height="21"/>
		<polygon id="XMLID_32_" class="st2" points="-2118,147 -2109,147 -2109,143 -2100,142.9 -2100,198 -2109,198 -2109,152 -2118,152 
					"/>
		<polygon id="XMLID_44_" class="st2" points="-2179,147 -2188,147 -2188,143 -2197,142.9 -2197,198 -2188,198 -2188,152 -2179,152 
					"/>
		<rect id="XMLID_28_" x="-2158" y="134" class="st2" width="19" height="16"/>
		<rect id="XMLID_21_" x="-2175" y="92.3" class="st5" width="53.3" height="41.8"/>
		<rect id="XMLID_43_" x="-2145.6" y="240.8" class="st5" width="17.6" height="10.3"/>
		<rect id="XMLID_48_" x="-2154.5" y="70.6" class="st5" width="13" height="7"/>
		<rect id="XMLID_42_" x="-2171.6" y="240.8" class="st5" width="17.6" height="10.3"/>
		<rect id="XMLID_26_" x="-2168" y="201.6" class="st2" width="10" height="41.5"/>
		<rect id="XMLID_27_" x="-2141.4" y="201.6" class="st2" width="8.8" height="41.5"/>
		<rect id="XMLID_23_" x="-2181.9" y="142.9" class="st5" width="67.2" height="72.6"/>
		<circle id="XMLID_22_" class="st7" cx="-2160" cy="109" r="7.3"/>
		<circle id="XMLID_25_" class="st7" cx="-2136.5" cy="109" r="7.3"/>
		<rect id="XMLID_24_" x="-2158" y="86" class="st5" width="21" height="8"/>
		<rect id="XMLID_29_" x="-2171.5" y="154" class="st8" width="46" height="30"/>
		<rect id="XMLID_31_" x="-2171.5" y="188" class="st8" width="7" height="7"/>
		<rect id="XMLID_37_" x="-2171.5" y="198" class="st8" width="7" height="7"/>
		<rect id="XMLID_38_" x="-2161.5" y="198" class="st8" width="7" height="7"/>
		<rect id="XMLID_39_" x="-2151.5" y="198" class="st8" width="7" height="7"/>
		<rect id="XMLID_40_" x="-2141.5" y="198" class="st8" width="7" height="7"/>
		<rect id="XMLID_41_" x="-2131.5" y="198" class="st8" width="7" height="7"/>
		<rect id="XMLID_33_" x="-2161.5" y="188" class="st8" width="7" height="7"/>
		<rect id="XMLID_34_" x="-2151.5" y="188" class="st8" width="7" height="7"/>
		<rect id="XMLID_35_" x="-2141.5" y="188" class="st8" width="7" height="7"/>
		<rect id="XMLID_36_" x="-2131.5" y="188" class="st8" width="7" height="7"/>
		<polygon id="XMLID_45_" class="st5" points="-2112,208 -2112,196 -2095,196 -2095,208 -2101,208 -2101,205 -2107,205 -2107,208 		
			"/>
		<polygon id="XMLID_47_" class="st5" points="-2201,208 -2201,196 -2184,196 -2184,208 -2190,208 -2190,205 -2196,205 -2196,208 		
			"/>
		<g id="XMLID_51_">
			<path id="XMLID_134_" class="st6" d="M-2171.5,184c2.5-4,5.1-8,7.8-11.9l0.6-0.9l0.8,0.8c1.8,1.8,3.5,3.7,5.2,5.5l-1.9,0.2
				c1.6-3.2,3.4-6.3,5-9.4c0.8-1.6,1.7-3.1,2.6-4.7l2.6-4.7l1.2-2.1l1.4,2c0.9,1.4,1.8,2.7,2.7,4.1l2.7,4.1c0.9,1.4,1.8,2.8,2.7,4.2
				l2.7,4.2l-2.2,0.1l2.9-5.4c1-1.8,2-3.6,3-5.4c1-1.8,2-3.6,3.1-5.4c1-1.8,2.1-3.6,3.2-5.3c-0.8,1.9-1.5,3.8-2.3,5.7
				c-0.8,1.9-1.6,3.8-2.4,5.7c-0.8,1.9-1.7,3.8-2.5,5.6l-2.6,5.6l-0.9,2l-1.3-1.8l-2.8-4.1c-0.9-1.4-1.9-2.7-2.8-4.1l-2.8-4.1
				c-0.9-1.4-1.9-2.7-2.8-4.1l2.5-0.1l-2.7,4.6c-0.9,1.5-1.8,3.1-2.7,4.6c-1.8,3.1-3.6,6.1-5.5,9.2l-0.9,1.4l-1-1.2
				c-1.6-1.9-3.2-3.9-4.8-5.9l1.4-0.1C-2165.3,176.8-2168.3,180.4-2171.5,184z"/>
		</g>
	</g>
	<g id="XMLID_633_">
		
			<ellipse id="XMLID_129_" transform="matrix(0.9581 0.2864 -0.2864 0.9581 -48.6419 656.7029)" class="st2" cx="-2269.4" cy="162.1" rx="5.9" ry="2.7"/>
		<g id="XMLID_20_">
			<polygon id="XMLID_118_" class="st5" points="-2258.5,174.3 -2321.8,175.5 -2350.3,157.5 -2287,156.3 			"/>
			<polygon id="XMLID_117_" class="st2" points="-2350.3,157.5 -2350.2,161 -2322.2,179 -2258.4,177.8 -2258.5,174.3 -2321.8,175.5 
							"/>
			<polygon id="XMLID_116_" class="st5" points="-2258.5,168.6 -2321.8,169.8 -2350.3,151.8 -2287,150.6 			"/>
			<polygon id="XMLID_115_" class="st2" points="-2350.3,151.8 -2350.2,155.3 -2322.2,173.4 -2258.4,172.1 -2258.5,168.6 
				-2321.8,169.8 			"/>
			<polygon id="XMLID_90_" class="st5" points="-2258.5,163.9 -2321.8,165.1 -2350.3,147.1 -2287,145.8 			"/>
			<polygon id="XMLID_89_" class="st2" points="-2350.3,147.1 -2350.2,150.6 -2322.2,168.6 -2258.4,167.4 -2258.5,163.9 
				-2321.8,165.1 			"/>
			<polygon id="XMLID_87_" class="st5" points="-2258.6,158.6 -2321.9,159.8 -2350.4,141.8 -2287.1,140.5 			"/>
			<polygon id="XMLID_86_" class="st2" points="-2350.4,141.8 -2350.3,145.3 -2322.3,163.3 -2258.5,162.1 -2258.6,158.6 
				-2321.9,159.8 			"/>
			<polygon id="XMLID_84_" class="st5" points="-2258.7,153.3 -2322,154.5 -2350.5,136.5 -2287.2,135.2 			"/>
			<polygon id="XMLID_83_" class="st2" points="-2350.5,136.5 -2350.4,140 -2322.4,158 -2258.6,156.8 -2258.7,153.3 -2322,154.5 			
				"/>
			<polygon id="XMLID_81_" class="st5" points="-2258.8,147.9 -2322.1,149.2 -2350.6,131.2 -2287.3,129.9 			"/>
			<polygon id="XMLID_80_" class="st2" points="-2350.6,131.2 -2350.5,134.7 -2322.5,152.7 -2258.7,151.5 -2258.8,148 
				-2322.1,149.2 			"/>
			<polygon id="XMLID_78_" class="st5" points="-2258.9,142.6 -2322.2,143.9 -2350.7,125.9 -2287.4,124.6 			"/>
			<polygon id="XMLID_77_" class="st2" points="-2350.7,125.9 -2350.6,129.4 -2322.6,147.4 -2258.8,146.2 -2258.9,142.6 
				-2322.2,143.9 			"/>
			<polygon id="XMLID_75_" class="st5" points="-2259,137.3 -2322.3,138.6 -2350.8,120.6 -2287.5,119.3 			"/>
			<polygon id="XMLID_74_" class="st2" points="-2350.8,120.6 -2350.7,124.1 -2322.7,142.1 -2258.9,140.9 -2259,137.3 
				-2322.3,138.6 			"/>
			<polygon id="XMLID_133_" class="st2" points="-2259,132.9 -2322.4,134.1 -2350.9,116.1 -2287.5,114.9 			"/>
			<polygon id="XMLID_132_" class="st5" points="-2264.2,131.7 -2320.8,132.8 -2346.2,117.3 -2289.7,116.3 			"/>
			<polygon id="XMLID_131_" class="st2" points="-2350.9,116.1 -2350.8,119.7 -2322.8,137.7 -2259,136.5 -2259.1,132.9 
				-2322.4,134.1 			"/>
			
				<ellipse id="XMLID_130_" transform="matrix(0.9581 0.2864 -0.2864 0.9581 -63.9385 675.1493)" class="st2" cx="-2340.2" cy="119" rx="5.9" ry="2.7"/>
			
				<ellipse id="XMLID_128_" transform="matrix(0.9663 0.2576 -0.2576 0.9663 -44.4612 601.8618)" class="st2" cx="-2319.4" cy="131.2" rx="5.2" ry="2.4"/>
			
				<ellipse id="XMLID_52_" transform="matrix(0.9663 0.2576 -0.2576 0.9663 -46.7682 593.3543)" class="st2" cx="-2288" cy="118.2" rx="5.5" ry="2.4"/>
			<polygon id="XMLID_69_" class="st4" points="-2322.9,115.6 -2302.4,133.8 -2282.6,133.4 -2303.1,115.2 			"/>
			
				<rect id="XMLID_68_" x="-2302.1" y="133.6" transform="matrix(0.9998 -1.933305e-002 1.933305e-002 0.9998 -3.3469 -44.2869)" class="st4" width="19.8" height="34.8"/>
		</g>
		
			<ellipse id="XMLID_55_" transform="matrix(0.9663 0.2576 -0.2576 0.9663 -44.5622 612.4999)" class="st2" cx="-2360" cy="136.2" rx="5.5" ry="2.4"/>
		<g id="XMLID_49_">
			<polygon id="XMLID_85_" class="st5" points="-2330.5,186 -2393.9,187.2 -2422.4,169.2 -2359,168 			"/>
			<polygon id="XMLID_82_" class="st2" points="-2422.4,169.2 -2422.3,172.8 -2394.2,190.8 -2330.5,189.6 -2330.6,186 
				-2393.9,187.2 			"/>
			<polygon id="XMLID_79_" class="st5" points="-2330.5,181.3 -2393.9,182.5 -2422.4,164.5 -2359,163.3 			"/>
			<polygon id="XMLID_76_" class="st2" points="-2422.4,164.5 -2422.3,168 -2394.2,186.1 -2330.5,184.8 -2330.6,181.3 
				-2393.9,182.5 			"/>
			<polygon id="XMLID_72_" class="st5" points="-2330.5,176.5 -2393.9,177.8 -2422.4,159.8 -2359,158.5 			"/>
			<polygon id="XMLID_73_" class="st2" points="-2422.4,159.8 -2422.3,163.3 -2394.2,181.3 -2330.5,180.1 -2330.6,176.5 
				-2393.9,177.8 			"/>
			<polygon id="XMLID_71_" class="st2" points="-2422.4,159.8 -2422.3,163.3 -2394.2,181.3 -2330.5,180.1 -2330.6,176.5 
				-2393.9,177.8 			"/>
			<polygon id="XMLID_70_" class="st5" points="-2330.6,171.2 -2394,172.5 -2422.5,154.5 -2359.1,153.2 			"/>
			<polygon id="XMLID_67_" class="st2" points="-2422.5,154.5 -2422.4,158 -2394.3,176 -2330.6,174.8 -2330.7,171.2 -2394,172.5 			
				"/>
			<polygon id="XMLID_66_" class="st5" points="-2330.7,165.9 -2394.1,167.2 -2422.6,149.2 -2359.2,147.9 			"/>
			<polygon id="XMLID_65_" class="st2" points="-2422.6,149.2 -2422.5,152.7 -2394.4,170.7 -2330.7,169.5 -2330.8,165.9 
				-2394.1,167.2 			"/>
			<polygon id="XMLID_64_" class="st5" points="-2330.8,160.6 -2394.2,161.9 -2422.7,143.8 -2359.3,142.6 			"/>
			<polygon id="XMLID_63_" class="st2" points="-2422.7,143.8 -2422.6,147.4 -2394.5,165.4 -2330.8,164.2 -2330.9,160.6 
				-2394.2,161.9 			"/>
			<polygon id="XMLID_62_" class="st5" points="-2330.9,155.3 -2394.3,156.6 -2422.8,138.5 -2359.4,137.3 			"/>
			<polygon id="XMLID_61_" class="st2" points="-2422.8,138.5 -2422.7,142.1 -2394.6,160.1 -2330.9,158.9 -2331,155.3 
				-2394.3,156.6 			"/>
			<polygon id="XMLID_60_" class="st2" points="-2331,150.9 -2394.4,152.1 -2422.9,134.1 -2359.5,132.9 			"/>
			<polygon id="XMLID_59_" class="st5" points="-2336.2,149.7 -2392.7,150.8 -2418.2,135.3 -2361.6,134.2 			"/>
			<polygon id="XMLID_58_" class="st2" points="-2422.9,134.1 -2422.8,137.7 -2394.7,155.7 -2331,154.5 -2331.1,150.9 
				-2394.4,152.1 			"/>
			
				<ellipse id="XMLID_57_" transform="matrix(0.9581 0.2864 -0.2864 0.9581 -61.8002 696.5135)" class="st2" cx="-2412.1" cy="137" rx="5.9" ry="2.7"/>
			
				<ellipse id="XMLID_56_" transform="matrix(0.9663 0.2576 -0.2576 0.9663 -42.2552 621.0075)" class="st2" cx="-2391.3" cy="149.2" rx="5.2" ry="2.4"/>
			<polygon id="XMLID_54_" class="st4" points="-2394.9,133.6 -2374.4,151.8 -2354.6,151.4 -2375.1,133.2 			"/>
		</g>
		
			<rect id="XMLID_50_" x="-2374" y="151.6" transform="matrix(0.9998 -1.933305e-002 1.933305e-002 0.9998 -3.7455 -45.6738)" class="st4" width="19.8" height="38.6"/>
		<g id="XMLID_88_">
			<polygon id="XMLID_110_" class="st5" points="-2265.1,211.2 -2328.4,212.4 -2356.9,194.4 -2293.6,193.2 			"/>
			<polygon id="XMLID_109_" class="st2" points="-2356.9,194.4 -2356.9,198 -2328.8,216 -2265,214.7 -2265.2,211.2 -2328.4,212.4 
							"/>
			<polygon id="XMLID_108_" class="st5" points="-2265.2,205.9 -2328.5,207.1 -2357,189.1 -2293.7,187.9 			"/>
			<polygon id="XMLID_107_" class="st2" points="-2357,189.1 -2357,192.6 -2328.9,210.7 -2265.1,209.4 -2265.3,205.9 -2328.5,207.1 
							"/>
			<polygon id="XMLID_106_" class="st5" points="-2265.3,200.6 -2328.6,201.8 -2357.1,183.8 -2293.8,182.6 			"/>
			<polygon id="XMLID_105_" class="st2" points="-2357.1,183.8 -2357.1,187.3 -2329,205.4 -2265.2,204.1 -2265.4,200.6 
				-2328.6,201.8 			"/>
			<polygon id="XMLID_104_" class="st5" points="-2265.4,195.3 -2328.7,196.5 -2357.2,178.5 -2293.9,177.3 			"/>
			<polygon id="XMLID_103_" class="st2" points="-2357.2,178.5 -2357.2,182 -2329.1,200.1 -2265.3,198.8 -2265.5,195.3 
				-2328.7,196.5 			"/>
			<polygon id="XMLID_102_" class="st5" points="-2265.5,190 -2328.8,191.2 -2357.3,173.2 -2294,172 			"/>
			<polygon id="XMLID_101_" class="st2" points="-2357.3,173.2 -2357.3,176.7 -2329.2,194.8 -2265.4,193.5 -2265.6,190 
				-2328.8,191.2 			"/>
			<polygon id="XMLID_100_" class="st5" points="-2265.6,184.7 -2328.9,185.9 -2357.4,167.9 -2294.1,166.7 			"/>
			<polygon id="XMLID_99_" class="st2" points="-2357.4,167.9 -2357.4,171.4 -2329.3,189.5 -2265.5,188.2 -2265.7,184.7 
				-2328.9,185.9 			"/>
			<polygon id="XMLID_98_" class="st2" points="-2265.7,180.3 -2329,181.5 -2357.5,163.5 -2294.2,162.3 			"/>
			<polygon id="XMLID_97_" class="st5" points="-2270.9,179.1 -2327.4,180.2 -2352.8,164.7 -2296.3,163.6 			"/>
			<polygon id="XMLID_96_" class="st2" points="-2357.5,163.5 -2357.5,167 -2329.4,185 -2265.6,183.8 -2265.8,180.3 -2329,181.5 			
				"/>
			
				<ellipse id="XMLID_95_" transform="matrix(0.9581 0.2864 -0.2864 0.9581 -50.6565 679.0308)" class="st2" cx="-2346.8" cy="166.3" rx="5.9" ry="2.7"/>
			
				<ellipse id="XMLID_94_" transform="matrix(0.9663 0.2576 -0.2576 0.9663 -32.4885 605.1671)" class="st2" cx="-2326" cy="178.6" rx="5.2" ry="2.4"/>
			
				<ellipse id="XMLID_93_" transform="matrix(0.9663 0.2576 -0.2576 0.9663 -34.7955 596.6595)" class="st2" cx="-2294.7" cy="165.5" rx="5.5" ry="2.4"/>
			<polygon id="XMLID_92_" class="st4" points="-2329.5,162.9 -2309,181.1 -2289.3,180.7 -2309.8,162.6 			"/>
			
				<rect id="XMLID_91_" x="-2308.7" y="180.9" transform="matrix(0.9998 -1.933305e-002 1.933305e-002 0.9998 -4.2635 -44.4062)" class="st4" width="19.8" height="34.8"/>
		</g>
		
			<ellipse id="XMLID_111_" transform="matrix(0.9581 0.2864 -0.2864 0.9581 -44.2696 659.0043)" class="st2" cx="-2275.1" cy="178.2" rx="5.9" ry="2.7"/>
		
			<ellipse id="XMLID_634_" transform="matrix(0.9581 0.2864 -0.2864 0.9581 -57.8624 655.3544)" class="st2" cx="-2269.4" cy="129.9" rx="5.9" ry="2.7"/>
		
			<ellipse id="XMLID_112_" transform="matrix(0.9581 0.2864 -0.2864 0.9581 -48.6419 656.7029)" class="st2" cx="-2269.4" cy="162.1" rx="5.9" ry="2.7"/>
		
			<ellipse id="XMLID_113_" transform="matrix(0.9581 0.2864 -0.2864 0.9581 -55.7241 676.7186)" class="st2" cx="-2341.4" cy="147.9" rx="5.9" ry="2.7"/>
		
			<ellipse id="XMLID_114_" transform="matrix(0.9663 0.2576 -0.2576 0.9663 -44.6261 612.9878)" class="st2" cx="-2361.9" cy="136.2" rx="5.5" ry="2.4"/>
	</g>
	<polygon id="XMLID_120_" class="st5" points="-1962,370 -1899,370 -1930.5,333.8 	"/>
	<polygon id="XMLID_119_" class="st9" points="-1962,379 -1899,379 -1930.5,415.2 	"/>
	<polyline id="XMLID_122_" class="st10" points="-2598,440.7 -2471.7,349 -2298.9,440.7 -2226,394 -2095.2,474 -1860,299 -1739,419 
		-1663,386.1 	"/>
	<polyline id="XMLID_192_" class="st11" points="-1622,555 -1541,417.5 -1424,486.2 -1322.1,271.4 -1296.9,342.5 -1216.9,188.3 
		-1187.6,244.7 -1133,133 -1072.3,248 -1048.2,213.5 -1026,250 -870,71 -803,137.7 -735,21 -694,71 -670,0.1 	"/>
	<path id="XMLID_178_" class="st10" d="M-1542,417.5"/>
	<rect id="XMLID_247_" x="-1574" y="27" class="st2" width="65" height="63"/>
	<rect id="XMLID_476_" x="-1574" y="97" class="st12" width="65" height="63"/>
	<rect id="XMLID_277_" x="-1508" y="27" class="st5" width="65" height="63"/>
	<rect id="XMLID_363_" x="-1442" y="27" class="st4" width="65" height="63"/>
	<rect id="XMLID_405_" x="-1376" y="27" class="st6" width="65" height="63"/>
	<rect id="XMLID_248_" x="-1560" y="51.8" style="fill:none;" width="43.7" height="13.3"/>
	<text id="XMLID_249_" transform="matrix(1 0 0 1 -1559.9996 58.8634)" style="font-family:'Rajdhani-Medium'; font-size:10px;">#2B6E36</text>
	<rect id="XMLID_478_" x="-1560" y="121.8" style="fill:none;" width="43.7" height="13.3"/>
	<text id="XMLID_477_" transform="matrix(1 0 0 1 -1559.9996 128.8634)" style="font-family:'Rajdhani-Medium'; font-size:10px;">#D7E0D3</text>
	<rect id="XMLID_279_" x="-1497.3" y="51.8" style="fill:none;" width="43.7" height="13.3"/>
	<text id="XMLID_278_" transform="matrix(1 0 0 1 -1497.333 58.8634)" style="font-family:'Rajdhani-Medium'; font-size:10px;">#398E43</text>
	<rect id="XMLID_365_" x="-1431.3" y="52.3" style="fill:none;" width="43.7" height="13.3"/>
	
		<text id="XMLID_364_" transform="matrix(1 0 0 1 -1431.333 59.3634)" style="font-family:'Rajdhani-Medium'; font-size:10px; letter-spacing:1;">#E0C95A</text>
	<rect id="XMLID_420_" x="-1365.3" y="52.3" style="fill:none;" width="43.7" height="13.3"/>
	
		<text id="XMLID_419_" transform="matrix(1 0 0 1 -1365.333 59.3634)" style="font-family:'Rajdhani-Medium'; font-size:10px; letter-spacing:1;">#D6B736</text>
	<rect id="XMLID_449_" x="-1310" y="27" class="st3" width="65" height="63"/>
	<rect id="XMLID_448_" x="-1299.3" y="52.3" style="fill:none;" width="43.7" height="13.3"/>
	
		<text id="XMLID_447_" transform="matrix(1 0 0 1 -1299.333 59.3634)" style="font-family:'Rajdhani-Medium'; font-size:10px; letter-spacing:1;">#BA902</text>
	<rect id="XMLID_506_" x="-1497.3" y="121.8" style="fill:none;" width="43.7" height="13.3"/>
	
		<text id="XMLID_505_" transform="matrix(1 0 0 1 -1497.333 128.8634)" class="st12" style="font-family:'Rajdhani-Medium'; font-size:10px;">#283028</text>
	<rect id="XMLID_535_" x="-1507" y="97" class="st0" width="65" height="63"/>
	<rect id="XMLID_534_" x="-1497.3" y="121.8" style="fill:none;" width="43.7" height="13.3"/>
	
		<text id="XMLID_532_" transform="matrix(1 0 0 1 -1497.333 128.8634)" class="st12" style="font-family:'Rajdhani-Medium'; font-size:10px;">#283028</text>
	<rect id="XMLID_539_" x="-1440" y="97" class="st9" width="65" height="63"/>
	<g id="XMLID_537_">
		<rect id="XMLID_1251_" x="-1430.3" y="121.8" style="fill:none;" width="43.7" height="13.3"/>
		<text id="XMLID_1250_" transform="matrix(1 0 0 1 -1430.333 128.8634)" style="font-family:'Rajdhani-Medium'; font-size:10px;">#283028</text>
	</g>
	<g id="XMLID_949_">
		<rect id="XMLID_968_" x="-525" y="259" class="st3" width="74" height="8"/>
		<rect id="XMLID_967_" x="-527" y="267" class="st3" width="80" height="12"/>
		<path id="XMLID_966_" class="st4" d="M-436.5,96.2c0,0,9.1,0.8,14.6-9.2h23.4c0,0-25.9,94.9-65.8,95l7.6-11.4
			c0,0,26.6-8.6,46.5-75.6h-7.6c0,0-13.8,17.6-25.2,10.9L-436.5,96.2z"/>
		<path id="XMLID_965_" class="st4" d="M-538.6,96.2c0,0-9.1,3.8-14.6-9.2h-23.4c0,0,25.9,94.9,65.8,95l-7.6-11.4
			c0,0-26.6-8.6-46.5-75.6h7.6c0,0,13.8,17.6,25.2,10.9L-538.6,96.2z"/>
		<path id="XMLID_964_" class="st4" d="M-450.7,259h-72.7c22,0,31.1-41.4,31.1-41.4s-8-2.7-7.4-6c0.7-3.3,5.8-7.3,5.8-7.3V192h12
			v12.3c0,0,6,3.7,6.7,7c0.6,3.3-6.5,6.3-6.5,6.3S-472.8,259-450.7,259z"/>
		<path id="XMLID_963_" class="st4" d="M-488,195.9c-47.9,0-52.7-108.9-52.7-108.9h105.4C-435.3,87-440.1,195.9-488,195.9z"/>
		<polygon id="XMLID_962_" class="st2" points="-440,226.9 -427.7,216.2 -409.6,219.5 -426.5,232.5 		"/>
		<polygon id="XMLID_961_" class="st5" points="-439.5,224.6 -443.5,208.7 -432.3,194 -428.4,215 		"/>
		<polygon id="XMLID_960_" class="st2" points="-419.5,208.6 -411.3,199.4 -397.4,200 -408.8,211.4 		"/>
		<polygon id="XMLID_959_" class="st5" points="-419.3,206.8 -423.9,195.3 -417,183.2 -411.9,198.5 		"/>
		<polygon id="XMLID_958_" class="st5" points="-405.2,192 -409.7,180.6 -402.8,168.5 -397.8,183.8 		"/>
		<polygon id="XMLID_957_" class="st2" points="-533,226.9 -545.3,216.2 -563.5,219.5 -546.5,232.5 		"/>
		<polygon id="XMLID_956_" class="st5" points="-533.5,224.6 -529.6,208.7 -540.7,194 -544.6,215 		"/>
		<polygon id="XMLID_955_" class="st2" points="-553.6,208.6 -561.7,199.4 -575.6,200 -564.3,211.4 		"/>
		<polygon id="XMLID_954_" class="st5" points="-553.7,206.8 -549.2,195.3 -556.1,183.2 -561.1,198.5 		"/>
		<polygon id="XMLID_953_" class="st5" points="-567.8,192 -563.3,180.6 -570.2,168.5 -575.2,183.8 		"/>
		<path id="XMLID_952_" class="st6" d="M-487,87v108.5c0,0-43.4,5.5-53.7-108.5H-487z"/>
		<path id="XMLID_951_" class="st6" d="M-487,192v67h-36.1c0,0,23.5-5,30.7-41.4c0,0-7.7-2.3-7.4-6c0.3-3.7,5.8-7.3,5.8-7.3V192
			H-487z"/>
		<path id="XMLID_950_" class="st3" d="M-497.9,208.2c0,0,9.5,10,20.3,0c0,0,5.4,4.4-4.5,9.2C-491.9,222.3-504,213.5-497.9,208.2z"
			/>
	</g>
	<g id="XMLID_920_">
		<rect id="XMLID_948_" x="146" y="27" class="st2" width="6" height="28"/>
		<polygon id="XMLID_947_" class="st2" points="190,131 202,131 202,125.7 215,125.6 215,200 202,200 202,138 190,138 		"/>
		<polygon id="XMLID_946_" class="st2" points="106,131 94,131 94,125.7 82,125.6 82,200 94,200 94,138 106,138 		"/>
		<rect id="XMLID_945_" x="135" y="113" class="st2" width="26" height="21"/>
		<rect id="XMLID_944_" x="113.5" y="56.4" class="st5" width="72.8" height="57"/>
		<rect id="XMLID_943_" x="153.6" y="259.2" class="st5" width="24" height="14"/>
		<rect id="XMLID_942_" x="141.5" y="26.9" class="st5" width="17.8" height="9.5"/>
		<rect id="XMLID_941_" x="118.1" y="259.2" class="st5" width="24" height="14"/>
		<rect id="XMLID_940_" x="123" y="205.7" class="st2" width="13.7" height="56.7"/>
		<rect id="XMLID_939_" x="159.4" y="205.7" class="st2" width="11.9" height="56.7"/>
		<rect id="XMLID_938_" x="104" y="125.6" class="st5" width="91.7" height="99.1"/>
		<circle id="XMLID_937_" class="st7" cx="134" cy="79.3" r="10"/>
		<circle id="XMLID_936_" class="st7" cx="166.1" cy="79.3" r="10"/>
		<rect id="XMLID_935_" x="135" y="48" class="st5" width="30" height="9"/>
		<rect id="XMLID_934_" x="118.3" y="140.7" class="st8" width="62.8" height="41"/>
		<rect id="XMLID_933_" x="118.3" y="187.1" class="st8" width="9.6" height="9.6"/>
		<rect id="XMLID_932_" x="118.3" y="200.8" class="st8" width="9.6" height="9.6"/>
		<rect id="XMLID_931_" x="131.9" y="200.8" class="st8" width="9.6" height="9.6"/>
		<rect id="XMLID_930_" x="145.6" y="200.8" class="st8" width="9.6" height="9.6"/>
		<rect id="XMLID_929_" x="159.2" y="200.8" class="st8" width="9.6" height="9.6"/>
		<rect id="XMLID_928_" x="172.9" y="200.8" class="st8" width="9.6" height="9.6"/>
		<rect id="XMLID_927_" x="131.9" y="187.1" class="st8" width="9.6" height="9.6"/>
		<rect id="XMLID_926_" x="145.6" y="187.1" class="st8" width="9.6" height="9.6"/>
		<rect id="XMLID_925_" x="159.2" y="187.1" class="st8" width="9.6" height="9.6"/>
		<rect id="XMLID_924_" x="172.9" y="187.1" class="st8" width="9.6" height="9.6"/>
		<polygon id="XMLID_923_" class="st5" points="199,213 199,198 222,198 222,213 213,213 213,210 206,210 206,213 		"/>
		<polygon id="XMLID_922_" class="st5" points="77,213 77,198 100,198 100,213 93,213 93,210 84,210 84,213 		"/>
		<g id="XMLID_921_">
			<path id="XMLID_257_" class="st6" d="M118.3,181.7c3.5-5.4,7.2-10.8,10.9-16.1l0.6-0.9l0.8,0.8c2.4,2.5,4.7,5.1,7,7.6l-1.9,0.2
				c2.3-4.3,4.6-8.5,7-12.8c1.2-2.1,2.4-4.2,3.5-6.4l3.6-6.4l1.2-2.1l1.4,2l7.5,11.2l7.4,11.3l-2.2,0.1l3.9-7.5l4-7.4l4.1-7.4
				c1.4-2.5,2.8-4.9,4.2-7.3c-1.1,2.6-2.2,5.2-3.3,7.8l-3.5,7.7l-3.5,7.7l-3.6,7.6l-0.9,2l-1.3-1.8l-7.7-11.1l-7.6-11.2l2.5-0.1
				l-3.6,6.3c-1.2,2.1-2.4,4.2-3.6,6.3c-2.5,4.2-4.9,8.4-7.4,12.6l-0.9,1.4l-1-1.2c-2.2-2.6-4.4-5.3-6.6-8l1.4-0.1
				C126.5,171.7,122.5,176.7,118.3,181.7z"/>
		</g>
	</g>
	<g id="XMLID_164_">
		
			<ellipse id="XMLID_919_" transform="matrix(0.9581 0.2864 -0.2864 0.9581 -62.3157 116.107)" class="st2" cx="-428.1" cy="-155" rx="8.6" ry="3.9"/>
		<g id="XMLID_894_">
			<polygon id="XMLID_918_" class="st5" points="-411.9,-137 -505.3,-135.2 -547.3,-161.7 -453.9,-163.5 			"/>
			<polygon id="XMLID_917_" class="st2" points="-547.3,-161.7 -547.2,-156.5 -505.8,-130 -411.8,-131.8 -412,-137 -505.2,-135.2 
							"/>
			<polygon id="XMLID_916_" class="st5" points="-411.9,-145.4 -505.3,-143.5 -547.3,-170.1 -453.9,-171.9 			"/>
			<polygon id="XMLID_915_" class="st2" points="-547.3,-170.1 -547.2,-164.9 -505.8,-138.3 -411.8,-140.1 -412,-145.4 
				-505.2,-143.6 			"/>
			<polygon id="XMLID_914_" class="st5" points="-411.9,-152.3 -505.3,-150.5 -547.3,-177.1 -453.9,-178.9 			"/>
			<polygon id="XMLID_913_" class="st2" points="-547.3,-177.1 -547.2,-171.9 -505.8,-145.3 -411.8,-147.1 -412,-152.3 
				-505.2,-150.5 			"/>
			<polygon id="XMLID_912_" class="st5" points="-412.1,-160.1 -505.4,-158.3 -547.4,-184.9 -454.1,-186.7 			"/>
			<polygon id="XMLID_911_" class="st2" points="-547.4,-184.9 -547.3,-179.7 -505.9,-153.1 -412,-154.9 -412.2,-160.1 
				-505.4,-158.3 			"/>
			<polygon id="XMLID_910_" class="st5" points="-412.2,-168 -505.6,-166.2 -547.6,-192.7 -454.2,-194.5 			"/>
			<polygon id="XMLID_909_" class="st2" points="-547.6,-192.7 -547.5,-187.5 -506.1,-160.9 -412.1,-162.8 -412.3,-168 
				-505.5,-166.2 			"/>
			<polygon id="XMLID_908_" class="st5" points="-412.4,-175.8 -505.7,-174 -547.7,-200.5 -454.4,-202.3 			"/>
			<polygon id="XMLID_907_" class="st2" points="-547.7,-200.5 -547.6,-195.3 -506.2,-168.8 -412.3,-170.6 -412.5,-175.8 
				-505.7,-174 			"/>
			<polygon id="XMLID_906_" class="st5" points="-412.5,-183.6 -505.9,-181.8 -547.9,-208.3 -454.5,-210.1 			"/>
			<polygon id="XMLID_905_" class="st2" points="-547.9,-208.3 -547.8,-203.1 -506.4,-176.6 -412.4,-178.4 -412.6,-183.6 
				-505.8,-181.8 			"/>
			<polygon id="XMLID_904_" class="st5" points="-412.7,-191.4 -506,-189.6 -548,-216.2 -454.7,-218 			"/>
			<polygon id="XMLID_903_" class="st2" points="-548,-216.2 -547.9,-210.9 -506.5,-184.4 -412.6,-186.2 -412.8,-191.4 -506,-189.6 
							"/>
			<polygon id="XMLID_902_" class="st2" points="-412.8,-197.9 -506.1,-196.1 -548.1,-222.7 -454.8,-224.5 			"/>
			<polygon id="XMLID_901_" class="st5" points="-420.4,-199.7 -503.7,-198.1 -541.2,-220.9 -457.9,-222.5 			"/>
			<polygon id="XMLID_900_" class="st2" points="-548.1,-222.7 -548,-217.5 -506.7,-190.9 -412.7,-192.7 -412.9,-197.9 
				-506.1,-196.1 			"/>
			
				<ellipse id="XMLID_899_" transform="matrix(0.9581 0.2864 -0.2864 0.9581 -84.8576 143.2907)" class="st2" cx="-532.3" cy="-218.5" rx="8.6" ry="3.9"/>
			
				<ellipse id="XMLID_898_" transform="matrix(0.9663 0.2576 -0.2576 0.9663 -68.5507 122.4593)" class="st2" cx="-501.7" cy="-200.4" rx="7.6" ry="3.6"/>
			
				<ellipse id="XMLID_897_" transform="matrix(0.9663 0.2576 -0.2576 0.9663 -71.9504 109.9221)" class="st2" cx="-455.5" cy="-219.7" rx="8.1" ry="3.6"/>
			<polygon id="XMLID_896_" class="st4" points="-506.9,-223.5 -476.7,-196.7 -447.6,-197.2 -477.7,-224 			"/>
			
				<rect id="XMLID_895_" x="-476.2" y="-197" transform="matrix(0.9998 -1.933305e-002 1.933305e-002 0.9998 3.2264 -8.9568)" class="st4" width="29.1" height="51.2"/>
		</g>
		
			<ellipse id="XMLID_893_" transform="matrix(0.9663 0.2576 -0.2576 0.9663 -68.6995 138.1361)" class="st2" cx="-561.6" cy="-193.1" rx="8.1" ry="3.6"/>
		<g id="XMLID_871_">
			<polygon id="XMLID_892_" class="st5" points="-518.1,-119.7 -611.5,-117.9 -653.5,-144.4 -560.1,-146.2 			"/>
			<polygon id="XMLID_891_" class="st2" points="-653.5,-144.4 -653.4,-139.2 -612,-112.7 -518,-114.5 -518.2,-119.7 -611.5,-117.9 
							"/>
			<polygon id="XMLID_890_" class="st5" points="-518.1,-126.7 -611.5,-124.9 -653.5,-151.4 -560.1,-153.2 			"/>
			<polygon id="XMLID_889_" class="st2" points="-653.5,-151.4 -653.4,-146.2 -612,-119.6 -518,-121.4 -518.2,-126.7 -611.5,-124.9 
							"/>
			<polygon id="XMLID_888_" class="st5" points="-518.1,-133.6 -611.5,-131.8 -653.5,-158.4 -560.1,-160.2 			"/>
			<polygon id="XMLID_887_" class="st2" points="-653.5,-158.4 -653.4,-153.2 -612,-126.6 -518,-128.4 -518.2,-133.6 -611.5,-131.8 
							"/>
			<polygon id="XMLID_886_" class="st2" points="-653.5,-158.4 -653.4,-153.2 -612,-126.6 -518,-128.4 -518.2,-133.6 -611.5,-131.8 
							"/>
			<polygon id="XMLID_885_" class="st5" points="-518.3,-141.4 -611.6,-139.6 -653.6,-166.2 -560.3,-168 			"/>
			<polygon id="XMLID_884_" class="st2" points="-653.6,-166.2 -653.5,-161 -612.2,-134.4 -518.2,-136.2 -518.4,-141.4 
				-611.6,-139.6 			"/>
			<polygon id="XMLID_883_" class="st5" points="-518.4,-149.3 -611.8,-147.5 -653.8,-174 -560.4,-175.8 			"/>
			<polygon id="XMLID_882_" class="st2" points="-653.8,-174 -653.7,-168.8 -612.3,-142.2 -518.3,-144.1 -518.5,-149.3 
				-611.8,-147.5 			"/>
			<polygon id="XMLID_881_" class="st5" points="-518.6,-157.1 -611.9,-155.3 -653.9,-181.8 -560.6,-183.6 			"/>
			<polygon id="XMLID_880_" class="st2" points="-653.9,-181.8 -653.8,-176.6 -612.5,-150.1 -518.5,-151.9 -518.7,-157.1 
				-611.9,-155.3 			"/>
			<polygon id="XMLID_879_" class="st5" points="-518.7,-164.9 -612.1,-163.1 -654.1,-189.6 -560.7,-191.4 			"/>
			<polygon id="XMLID_878_" class="st2" points="-654.1,-189.6 -654,-184.4 -612.6,-157.9 -518.6,-159.7 -518.8,-164.9 
				-612.1,-163.1 			"/>
			<polygon id="XMLID_877_" class="st2" points="-518.8,-171.4 -612.2,-169.6 -654.2,-196.2 -560.8,-198 			"/>
			<polygon id="XMLID_876_" class="st5" points="-526.5,-173.2 -609.8,-171.6 -647.3,-194.4 -564,-196 			"/>
			<polygon id="XMLID_875_" class="st2" points="-654.2,-196.2 -654.1,-190.9 -612.7,-164.4 -518.7,-166.2 -519,-171.4 
				-612.2,-169.6 			"/>
			
				<ellipse id="XMLID_874_" transform="matrix(0.9581 0.2864 -0.2864 0.9581 -81.7064 174.7742)" class="st2" cx="-638.4" cy="-191.9" rx="8.6" ry="3.9"/>
			
				<ellipse id="XMLID_873_" transform="matrix(0.9663 0.2576 -0.2576 0.9663 -65.2998 150.6734)" class="st2" cx="-607.7" cy="-173.9" rx="7.6" ry="3.6"/>
			<polygon id="XMLID_872_" class="st4" points="-612.9,-196.9 -582.8,-170.2 -553.6,-170.7 -583.8,-197.5 			"/>
		</g>
		
			<rect id="XMLID_870_" x="-582.2" y="-170.5" transform="matrix(0.9998 -1.933305e-002 1.933305e-002 0.9998 2.6389 -11.0007)" class="st4" width="29.1" height="56.9"/>
		<g id="XMLID_320_">
			<polygon id="XMLID_869_" class="st5" points="-421.7,-82.6 -515,-80.8 -557,-107.3 -463.7,-109.1 			"/>
			<polygon id="XMLID_868_" class="st2" points="-557,-107.3 -556.9,-102.1 -515.6,-75.5 -421.6,-77.3 -421.8,-82.6 -515,-80.8 			
				"/>
			<polygon id="XMLID_867_" class="st5" points="-421.8,-90.4 -515.2,-88.6 -557.2,-115.1 -463.8,-116.9 			"/>
			<polygon id="XMLID_866_" class="st2" points="-557.2,-115.1 -557.1,-109.9 -515.7,-83.3 -421.7,-85.2 -421.9,-90.4 -515.2,-88.6 
							"/>
			<polygon id="XMLID_865_" class="st5" points="-422,-98.2 -515.3,-96.4 -557.3,-122.9 -464,-124.7 			"/>
			<polygon id="XMLID_864_" class="st2" points="-557.3,-122.9 -557.2,-117.7 -515.9,-91.2 -421.9,-93 -422.1,-98.2 -515.3,-96.4 
							"/>
			<polygon id="XMLID_863_" class="st5" points="-422.1,-106 -515.5,-104.2 -557.5,-130.7 -464.1,-132.6 			"/>
			<polygon id="XMLID_862_" class="st2" points="-557.5,-130.7 -557.4,-125.5 -516,-99 -422,-100.8 -422.2,-106 -515.5,-104.2 			
				"/>
			<polygon id="XMLID_861_" class="st5" points="-422.3,-113.8 -515.6,-112 -557.6,-138.6 -464.3,-140.4 			"/>
			<polygon id="XMLID_860_" class="st2" points="-557.6,-138.6 -557.5,-133.4 -516.2,-106.8 -422.2,-108.6 -422.4,-113.8 
				-515.6,-112 			"/>
			<polygon id="XMLID_859_" class="st5" points="-422.4,-121.6 -515.8,-119.8 -557.8,-146.4 -464.4,-148.2 			"/>
			<polygon id="XMLID_858_" class="st2" points="-557.8,-146.4 -557.7,-141.2 -516.3,-114.6 -422.3,-116.4 -422.5,-121.6 
				-515.8,-119.8 			"/>
			<polygon id="XMLID_857_" class="st2" points="-422.6,-128.1 -515.9,-126.3 -557.9,-152.9 -464.6,-154.7 			"/>
			<polygon id="XMLID_856_" class="st5" points="-430.2,-129.9 -513.5,-128.3 -551,-151.1 -467.7,-152.7 			"/>
			<polygon id="XMLID_326_" class="st2" points="-557.9,-152.9 -557.8,-147.7 -516.4,-121.1 -422.5,-122.9 -422.7,-128.1 
				-515.9,-126.3 			"/>
			
				<ellipse id="XMLID_325_" transform="matrix(0.9581 0.2864 -0.2864 0.9581 -65.2845 149.0106)" class="st2" cx="-542.1" cy="-148.7" rx="8.6" ry="3.9"/>
			
				<ellipse id="XMLID_324_" transform="matrix(0.9663 0.2576 -0.2576 0.9663 -50.9071 127.3301)" class="st2" cx="-511.4" cy="-130.6" rx="7.6" ry="3.6"/>
			
				<ellipse id="XMLID_323_" transform="matrix(0.9663 0.2576 -0.2576 0.9663 -54.3068 114.7929)" class="st2" cx="-465.3" cy="-149.9" rx="8.1" ry="3.6"/>
			<polygon id="XMLID_322_" class="st4" points="-516.6,-153.7 -486.5,-126.9 -457.3,-127.5 -487.5,-154.3 			"/>
			
				<rect id="XMLID_321_" x="-486" y="-127.2" transform="matrix(0.9998 -1.933305e-002 1.933305e-002 0.9998 1.8756 -9.1326)" class="st4" width="29.1" height="51.2"/>
		</g>
		
			<ellipse id="XMLID_319_" transform="matrix(0.9581 0.2864 -0.2864 0.9581 -55.8724 119.4985)" class="st2" cx="-436.5" cy="-131.3" rx="8.6" ry="3.9"/>
		
			<ellipse id="XMLID_318_" transform="matrix(0.9581 0.2864 -0.2864 0.9581 -75.9036 114.1198)" class="st2" cx="-428.1" cy="-202.4" rx="8.6" ry="3.9"/>
		
			<ellipse id="XMLID_317_" transform="matrix(0.9581 0.2864 -0.2864 0.9581 -62.3157 116.107)" class="st2" cx="-428.1" cy="-155" rx="8.6" ry="3.9"/>
		
			<ellipse id="XMLID_246_" transform="matrix(0.9581 0.2864 -0.2864 0.9581 -72.7524 145.6033)" class="st2" cx="-534.2" cy="-175.9" rx="8.6" ry="3.9"/>
		
			<ellipse id="XMLID_245_" transform="matrix(0.9663 0.2576 -0.2576 0.9663 -68.7937 138.855)" class="st2" cx="-564.4" cy="-193.1" rx="8.1" ry="3.6"/>
	</g>
</g>
</svg>
