<?xml version="1.0" encoding="utf-8"?>
<!-- Generator: Adobe Illustrator 19.0.0, SVG Export Plug-In . SVG Version: 6.00 Build 0)  -->
<svg version="1.1" xmlns="http://www.w3.org/2000/svg" xmlns:xlink="http://www.w3.org/1999/xlink" x="0px" y="0px"
	 viewBox="0 0 300 300" style="enable-background:new 0 0 300 300;" xml:space="preserve">
<style type="text/css">
	.st0{fill:#283028;}
	.st1{fill:#FFFFFF;}
	.st2{fill:#2B6E36;}
	.st3{fill:#BA902A;}
	.st4{fill:#E0C95A;}
	.st5{fill:#398E43;}
	.st6{fill:#D6B736;}
	.st7{fill:#1F491F;stroke:#E8EAEA;stroke-width:3;stroke-miterlimit:10;}
	.st8{fill:#1F491F;}
	.st9{fill:#9B3645;}
	.st10{fill:none;stroke:#D6B736;stroke-miterlimit:10;}
	.st11{fill:#D7E0D3;}
</style>
<g id="Layer_2">
	<rect id="XMLID_136_" x="-2610" y="478.1" class="st0" width="960" height="559.9"/>
	<g id="XMLID_137_">
		<g id="XMLID_144_">
			<path id="XMLID_155_" class="st1" d="M-2200.2,966.5v-5c0-0.8,0.3-1.1,1-1.1h1.8c0.7,0,1,0.4,1,1.1v4.9c0,4.3,1.1,7.6,3.4,10
				c2.3,2.4,5.5,3.6,9.6,3.6h15c4.2,0,7.4-1.2,9.6-3.6c2.3-2.4,3.4-5.8,3.4-10v-6.3c0-3.9-1.5-7-4.6-9.3c-3.1-2.3-6.8-4-11.2-5
				c-4.4-1-8.8-2.1-13.2-3.1c-4.4-1-8.1-2.8-11.2-5.2c-3.1-2.4-4.6-5.7-4.6-9.9V920c0-5.2,1.5-9.3,4.6-12.4c3-3.1,7.1-4.6,12.2-4.6
				h15c5.1,0,9.2,1.5,12.2,4.6c3,3.1,4.6,7.2,4.6,12.4v3.8c0,0.8-0.3,1.1-1,1.1h-1.8c-0.7,0-1-0.4-1-1.1v-3.6c0-4.3-1.1-7.6-3.4-10
				c-2.3-2.4-5.5-3.6-9.6-3.6h-15c-4.2,0-7.4,1.2-9.6,3.6c-2.3,2.4-3.4,5.8-3.4,10v7.3c0,6.2,5.3,10.4,15.8,12.8
				c4.4,0.9,8.8,1.9,13.2,3.1c4.4,1.1,8.1,3,11.2,5.8c3.1,2.7,4.6,6.3,4.6,10.8v6.6c0,5.2-1.5,9.3-4.6,12.4
				c-3.1,3.1-7.1,4.6-12.2,4.6h-15c-5.1,0-9.2-1.5-12.2-4.6C-2198.7,975.8-2200.2,971.7-2200.2,966.5z"/>
			<path id="XMLID_153_" class="st1" d="M-2127.2,923.2h-8.3c-0.8,0-1.1-0.3-1.1-1v-1.5c0-0.7,0.4-1,1.1-1h8.3c0.8,0,1.1-0.3,1.1-1
				v-9.8c0-0.8,0.3-1.1,1-1.1h1.8c0.7,0,1,0.4,1,1.1v9.8c0,0.7,0.4,1,1.1,1h16.2c0.8,0,1.1,0.3,1.1,1v1.5c0,0.7-0.4,1-1.1,1h-16.2
				c-0.8,0-1.1,0.3-1.1,1v42.6c0,4.2,1.2,7.4,3.7,9.8c2.5,2.3,5.8,3.5,10.1,3.5h4.8c0.8,0,1.1,0.3,1.1,1v1.5c0,0.7-0.4,1-1.1,1h-4.8
				c-5.2,0-9.4-1.5-12.7-4.5c-3.3-3-4.9-7.1-4.9-12.2v-42.7C-2126.1,923.5-2126.5,923.2-2127.2,923.2z"/>
			<path id="XMLID_150_" class="st1" d="M-2060.8,983.5h-10.6c-5.1,0-9.2-1.5-12.2-4.6c-3-3.1-4.6-7.2-4.6-12.4v-29.8
				c0-5.2,1.5-9.3,4.6-12.4c3-3.1,7.1-4.6,12.2-4.6h10.6c5.1,0,9.2,1.5,12.2,4.6c3,3.1,4.6,7.2,4.6,12.4v29.8
				c0,5.2-1.5,9.3-4.6,12.4C-2051.7,982-2055.7,983.5-2060.8,983.5z M-2071.5,980h10.6c4.2,0,7.4-1.2,9.6-3.6
				c2.3-2.4,3.4-5.8,3.4-10v-29.6c0-4.3-1.1-7.6-3.4-10c-2.3-2.4-5.5-3.6-9.6-3.6h-10.6c-4.2,0-7.4,1.2-9.6,3.6
				c-2.3,2.4-3.4,5.8-3.4,10v29.6c0,4.3,1.1,7.6,3.4,10C-2078.9,978.8-2075.7,980-2071.5,980z"/>
			<path id="XMLID_148_" class="st1" d="M-1990.8,981v1.5c0,0.7-0.4,1-1.1,1h-17.8c-5.1,0-9.2-1.5-12.2-4.6c-3-3.1-4.6-7.2-4.6-12.4
				v-29.8c0-5.2,1.5-9.3,4.6-12.4c3-3.1,7.1-4.6,12.2-4.6h17.8c0.8,0,1.1,0.3,1.1,1v1.5c0,0.7-0.4,1-1.1,1h-17.8
				c-4.2,0-7.4,1.2-9.6,3.6c-2.3,2.4-3.4,5.8-3.4,10v29.6c0,4.3,1.1,7.6,3.4,10c2.3,2.4,5.5,3.6,9.6,3.6h17.8
				C-1991.2,980-1990.8,980.4-1990.8,981z"/>
			<path id="XMLID_145_" class="st1" d="M-1973.7,983.5h-1.8c-0.7,0-1-0.4-1-1.1v-85.8c0-0.8,0.3-1.1,1-1.1h1.8c0.7,0,1,0.4,1,1.1
				v85.8C-1972.6,983.2-1973,983.5-1973.7,983.5z M-1940.6,919.7h1.8c0.9,0,1.1,0.4,0.5,1.1l-19.9,29.4v0.5l22.5,31.7
				c0.6,0.8,0.5,1.1-0.4,1.1h-2.1c-0.9,0-1.7-0.4-2.3-1.1l-21.9-31.2c-0.3-0.5-0.3-1,0-1.5l19.8-29.2
				C-1942.2,920-1941.5,919.7-1940.6,919.7z"/>
		</g>
		<g id="XMLID_141_">
			<polygon id="XMLID_143_" class="st1" points="-2220.7,920.5 -2222,923.2 -2222.2,923.5 -2251.6,982.9 -2281.1,923.2 
				-2281.1,923.2 -2282.7,920.1 -2275.6,920.1 -2251.6,968.8 -2227.6,920.5 			"/>
			<polygon id="XMLID_142_" class="st1" points="-2227.6,920.5 -2227.6,920.5 -2227.6,920.4 			"/>
		</g>
		<g id="XMLID_138_">
			<line id="XMLID_140_" class="st2" x1="-2281.1" y1="923.2" x2="-2281.1" y2="923.2"/>
			<polygon id="XMLID_139_" class="st2" points="-1986.3,873.4 -1986.3,873.4 -2007.2,831 -2031.3,879.7 -2093.3,754.2 
				-2146.7,862.3 -2173,809.9 -2227.6,920.5 -2227.6,920.4 -2227.6,920.5 -2220.7,920.5 -2173,823.9 -2146.6,876.3 -2093.3,768.3 
				-2031.3,893.8 -2007.2,845.1 -1992,876.2 -1985,876.3 			"/>
		</g>
	</g>
	<rect id="XMLID_316_" x="-1630" y="478.1" class="st0" width="960" height="559.9"/>
	<g id="XMLID_294_">
		<g id="XMLID_303_">
			<path id="XMLID_314_" class="st1" d="M-1241.2,812.9v-5c0-0.8,0.3-1.1,1-1.1h1.8c0.7,0,1,0.4,1,1.1v4.9c0,4.3,1.1,7.6,3.4,10
				c2.3,2.4,5.5,3.6,9.6,3.6h15c4.2,0,7.4-1.2,9.6-3.6c2.3-2.4,3.4-5.8,3.4-10v-6.3c0-3.9-1.5-7-4.6-9.3c-3.1-2.3-6.8-4-11.2-5
				c-4.4-1-8.8-2.1-13.2-3.1c-4.4-1-8.1-2.8-11.2-5.2c-3.1-2.4-4.6-5.7-4.6-9.9v-7.5c0-5.2,1.5-9.3,4.6-12.4c3-3.1,7.1-4.6,12.2-4.6
				h15c5.1,0,9.2,1.5,12.2,4.6c3,3.1,4.6,7.2,4.6,12.4v3.8c0,0.8-0.3,1.1-1,1.1h-1.8c-0.7,0-1-0.4-1-1.1v-3.6c0-4.3-1.1-7.6-3.4-10
				c-2.3-2.4-5.5-3.6-9.6-3.6h-15c-4.2,0-7.4,1.2-9.6,3.6c-2.3,2.4-3.4,5.8-3.4,10v7.3c0,6.2,5.3,10.4,15.8,12.8
				c4.4,0.9,8.8,1.9,13.2,3.1c4.4,1.1,8.1,3,11.2,5.8c3.1,2.7,4.6,6.3,4.6,10.8v6.6c0,5.2-1.5,9.3-4.6,12.4
				c-3.1,3.1-7.1,4.6-12.2,4.6h-15c-5.1,0-9.2-1.5-12.2-4.6C-1239.7,822.2-1241.2,818.1-1241.2,812.9z"/>
			<path id="XMLID_312_" class="st1" d="M-1168.2,769.5h-8.3c-0.8,0-1.1-0.3-1.1-1V767c0-0.7,0.4-1,1.1-1h8.3c0.8,0,1.1-0.3,1.1-1
				v-9.8c0-0.8,0.3-1.1,1-1.1h1.8c0.7,0,1,0.4,1,1.1v9.8c0,0.7,0.4,1,1.1,1h16.2c0.8,0,1.1,0.3,1.1,1v1.5c0,0.7-0.4,1-1.1,1h-16.2
				c-0.8,0-1.1,0.3-1.1,1v42.6c0,4.2,1.2,7.4,3.7,9.8c2.5,2.3,5.8,3.5,10.1,3.5h4.8c0.8,0,1.1,0.3,1.1,1v1.5c0,0.7-0.4,1-1.1,1h-4.8
				c-5.2,0-9.4-1.5-12.7-4.5c-3.3-3-4.9-7.1-4.9-12.2v-42.7C-1167.1,769.9-1167.5,769.5-1168.2,769.5z"/>
			<path id="XMLID_309_" class="st1" d="M-1101.8,829.9h-10.6c-5.1,0-9.2-1.5-12.2-4.6c-3-3.1-4.6-7.2-4.6-12.4v-29.8
				c0-5.2,1.5-9.3,4.6-12.4c3-3.1,7.1-4.6,12.2-4.6h10.6c5.1,0,9.2,1.5,12.2,4.6c3,3.1,4.6,7.2,4.6,12.4v29.8
				c0,5.2-1.5,9.3-4.6,12.4C-1092.7,828.4-1096.7,829.9-1101.8,829.9z M-1112.5,826.4h10.6c4.2,0,7.4-1.2,9.6-3.6
				c2.3-2.4,3.4-5.8,3.4-10v-29.6c0-4.3-1.1-7.6-3.4-10c-2.3-2.4-5.5-3.6-9.6-3.6h-10.6c-4.2,0-7.4,1.2-9.6,3.6
				c-2.3,2.4-3.4,5.8-3.4,10v29.6c0,4.3,1.1,7.6,3.4,10C-1119.9,825.2-1116.7,826.4-1112.5,826.4z"/>
			<path id="XMLID_307_" class="st1" d="M-1031.8,827.4v1.5c0,0.7-0.4,1-1.1,1h-17.8c-5.1,0-9.2-1.5-12.2-4.6
				c-3-3.1-4.6-7.2-4.6-12.4v-29.8c0-5.2,1.5-9.3,4.6-12.4c3-3.1,7.1-4.6,12.2-4.6h17.8c0.8,0,1.1,0.3,1.1,1v1.5c0,0.7-0.4,1-1.1,1
				h-17.8c-4.2,0-7.4,1.2-9.6,3.6c-2.3,2.4-3.4,5.8-3.4,10v29.6c0,4.3,1.1,7.6,3.4,10c2.3,2.4,5.5,3.6,9.6,3.6h17.8
				C-1032.2,826.4-1031.8,826.7-1031.8,827.4z"/>
			<path id="XMLID_304_" class="st1" d="M-1014.7,829.9h-1.8c-0.7,0-1-0.4-1-1.1V743c0-0.8,0.3-1.1,1-1.1h1.8c0.7,0,1,0.4,1,1.1
				v85.8C-1013.6,829.5-1014,829.9-1014.7,829.9z M-981.6,766h1.8c0.9,0,1.1,0.4,0.5,1.1l-19.9,29.4v0.5l22.5,31.7
				c0.6,0.8,0.5,1.1-0.4,1.1h-2.1c-0.9,0-1.7-0.4-2.3-1.1l-21.9-31.2c-0.3-0.5-0.3-1,0-1.5l19.8-29.2
				C-983.2,766.3-982.5,766-981.6,766z"/>
		</g>
		<g id="XMLID_298_">
			<polygon id="XMLID_302_" class="st1" points="-1261.7,766.8 -1263,769.6 -1263.2,769.9 -1292.6,829.3 -1322.1,769.5 
				-1322.1,769.5 -1323.7,766.5 -1316.6,766.5 -1292.6,815.2 -1268.6,766.8 			"/>
			<polygon id="XMLID_299_" class="st1" points="-1268.6,766.8 -1268.6,766.8 -1268.6,766.8 			"/>
		</g>
		<g id="XMLID_295_">
			<line id="XMLID_297_" class="st2" x1="-1322.1" y1="769.5" x2="-1322.1" y2="769.5"/>
			<polygon id="XMLID_296_" class="st2" points="-1027.3,719.8 -1027.3,719.8 -1048.2,677.4 -1072.3,726 -1134.3,600.6 
				-1187.7,708.7 -1214,656.3 -1268.6,766.8 -1268.6,766.8 -1268.6,766.8 -1261.7,766.8 -1214,670.3 -1187.6,722.7 -1134.3,614.7 
				-1072.3,740.1 -1048.2,691.5 -1033,722.6 -1026,722.6 			"/>
		</g>
	</g>
</g>
<g id="Layer_1">
	<rect id="XMLID_533_" x="-1507" y="575" class="st0" width="65" height="63"/>
	<g id="XMLID_46_">
		<rect id="XMLID_4_" x="-2012" y="685" class="st3" width="50" height="5"/>
		<rect id="XMLID_6_" x="-2014" y="690" class="st3" width="55" height="8"/>
		<path id="XMLID_5_" class="st4" d="M-1951.3,574.4c0,0,6.2,0.6,9.9-6.4h15.9c0,0-17.6,64.6-44.6,64.7l5.1-7.5
			c0,0,18-6.1,31.6-51.1h-5.2c0,0-9.3,11.8-17.1,7.2L-1951.3,574.4z"/>
		<path id="XMLID_7_" class="st4" d="M-2020.5,574.4c0,0-6.2,2.7-9.9-6.4h-15.9c0,0,17.6,64.6,44.6,64.7l-5.1-7.5
			c0,0-18-6.1-31.6-51.1h5.2c0,0,9.3,11.8,17.1,7.2L-2020.5,574.4z"/>
		<path id="XMLID_16_" class="st4" d="M-1961,685h-49.4c14.9,0,21.1-28,21.1-28s-5.8-1.8-5.4-4c0.5-2.2,3.6-4.9,3.6-4.9v-8h8v8
			c0,0,4.5,2.5,4.9,4.8c0.4,2.2-4.2,4.2-4.2,4.2S-1975.9,685-1961,685z"/>
		<path id="XMLID_17_" class="st4" d="M-1986.2,641.9c-32.5,0-35.8-73.9-35.8-73.9h71.5C-1950.5,568-1953.7,641.9-1986.2,641.9z"/>
		<polygon id="XMLID_2_" class="st2" points="-1953.7,663.3 -1945.3,656.1 -1933,658.3 -1944.5,667.1 		"/>
		<polygon id="XMLID_8_" class="st5" points="-1953.3,661.7 -1956,651 -1948.5,641 -1945.8,655.3 		"/>
		<polygon id="XMLID_10_" class="st2" points="-1939.7,650.9 -1934.2,644.6 -1924.7,645.1 -1932.5,652.8 		"/>
		<polygon id="XMLID_9_" class="st5" points="-1939.6,649.7 -1942.7,641.9 -1938,633.7 -1934.6,644.1 		"/>
		<polygon id="XMLID_11_" class="st5" points="-1930,639.7 -1933.1,631.9 -1928.4,623.7 -1925,634.1 		"/>
		<polygon id="XMLID_15_" class="st2" points="-2016.8,663.3 -2025.1,656.1 -2037.4,658.3 -2026,667.1 		"/>
		<polygon id="XMLID_14_" class="st5" points="-2017.1,661.7 -2014.4,651 -2022,641 -2024.7,655.3 		"/>
		<polygon id="XMLID_13_" class="st2" points="-2030.7,650.9 -2036.3,644.6 -2045.7,645.1 -2038,652.8 		"/>
		<polygon id="XMLID_12_" class="st5" points="-2030.8,649.7 -2027.8,641.9 -2032.4,633.7 -2035.8,644.1 		"/>
		<polygon id="XMLID_3_" class="st5" points="-2040.4,639.7 -2037.3,631.9 -2042,623.7 -2045.4,634.1 		"/>
		<path id="XMLID_1_" class="st6" d="M-1986,568v74c0,0-29,3.7-36-74H-1986z"/>
		<path id="XMLID_18_" class="st6" d="M-1986,640v45h-24.1c0,0,15.9-3.3,20.9-28c0,0-5.6-1.5-5.4-4c0.2-2.5,3.6-4.9,3.6-4.9v-8
			H-1986z"/>
		<path id="XMLID_19_" class="st3" d="M-1992.9,650.7c0,0,6.4,6.8,13.8,0c0,0,3.7,3-3,6.3C-1988.9,660.2-1997.1,654.3-1992.9,650.7z
			"/>
	</g>
	<g id="XMLID_53_">
		<rect id="XMLID_30_" x="-2150" y="549" class="st2" width="4" height="21"/>
		<polygon id="XMLID_32_" class="st2" points="-2118,625 -2109,625 -2109,621 -2100,620.9 -2100,676 -2109,676 -2109,630 -2118,630 
					"/>
		<polygon id="XMLID_44_" class="st2" points="-2179,625 -2188,625 -2188,621 -2197,620.9 -2197,676 -2188,676 -2188,630 -2179,630 
					"/>
		<rect id="XMLID_28_" x="-2158" y="612" class="st2" width="19" height="16"/>
		<rect id="XMLID_21_" x="-2175" y="570.3" class="st5" width="53.3" height="41.8"/>
		<rect id="XMLID_43_" x="-2145.6" y="718.8" class="st5" width="17.6" height="10.3"/>
		<rect id="XMLID_48_" x="-2154.5" y="548.6" class="st5" width="13" height="7"/>
		<rect id="XMLID_42_" x="-2171.6" y="718.8" class="st5" width="17.6" height="10.3"/>
		<rect id="XMLID_26_" x="-2168" y="679.6" class="st2" width="10" height="41.5"/>
		<rect id="XMLID_27_" x="-2141.4" y="679.6" class="st2" width="8.8" height="41.5"/>
		<rect id="XMLID_23_" x="-2181.9" y="620.9" class="st5" width="67.2" height="72.6"/>
		<circle id="XMLID_22_" class="st7" cx="-2160" cy="587" r="7.3"/>
		<circle id="XMLID_25_" class="st7" cx="-2136.5" cy="587" r="7.3"/>
		<rect id="XMLID_24_" x="-2158" y="564" class="st5" width="21" height="8"/>
		<rect id="XMLID_29_" x="-2171.5" y="632" class="st8" width="46" height="30"/>
		<rect id="XMLID_31_" x="-2171.5" y="666" class="st8" width="7" height="7"/>
		<rect id="XMLID_37_" x="-2171.5" y="676" class="st8" width="7" height="7"/>
		<rect id="XMLID_38_" x="-2161.5" y="676" class="st8" width="7" height="7"/>
		<rect id="XMLID_39_" x="-2151.5" y="676" class="st8" width="7" height="7"/>
		<rect id="XMLID_40_" x="-2141.5" y="676" class="st8" width="7" height="7"/>
		<rect id="XMLID_41_" x="-2131.5" y="676" class="st8" width="7" height="7"/>
		<rect id="XMLID_33_" x="-2161.5" y="666" class="st8" width="7" height="7"/>
		<rect id="XMLID_34_" x="-2151.5" y="666" class="st8" width="7" height="7"/>
		<rect id="XMLID_35_" x="-2141.5" y="666" class="st8" width="7" height="7"/>
		<rect id="XMLID_36_" x="-2131.5" y="666" class="st8" width="7" height="7"/>
		<polygon id="XMLID_45_" class="st5" points="-2112,686 -2112,674 -2095,674 -2095,686 -2101,686 -2101,683 -2107,683 -2107,686 		
			"/>
		<polygon id="XMLID_47_" class="st5" points="-2201,686 -2201,674 -2184,674 -2184,686 -2190,686 -2190,683 -2196,683 -2196,686 		
			"/>
		<g id="XMLID_51_">
			<path id="XMLID_134_" class="st6" d="M-2171.5,662c2.5-4,5.1-8,7.8-11.9l0.6-0.9l0.8,0.8c1.8,1.8,3.5,3.7,5.2,5.5l-1.9,0.2
				c1.6-3.2,3.4-6.3,5-9.4c0.8-1.6,1.7-3.1,2.6-4.7l2.6-4.7l1.2-2.1l1.4,2c0.9,1.4,1.8,2.7,2.7,4.1l2.7,4.1c0.9,1.4,1.8,2.8,2.7,4.2
				l2.7,4.2l-2.2,0.1l2.9-5.4c1-1.8,2-3.6,3-5.4c1-1.8,2-3.6,3.1-5.4c1-1.8,2.1-3.6,3.2-5.3c-0.8,1.9-1.5,3.8-2.3,5.7
				c-0.8,1.9-1.6,3.8-2.4,5.7c-0.8,1.9-1.7,3.8-2.5,5.6l-2.6,5.6l-0.9,2l-1.3-1.8l-2.8-4.1c-0.9-1.4-1.9-2.7-2.8-4.1l-2.8-4.1
				c-0.9-1.4-1.9-2.7-2.8-4.1l2.5-0.1l-2.7,4.6c-0.9,1.5-1.8,3.1-2.7,4.6c-1.8,3.1-3.6,6.1-5.5,9.2l-0.9,1.4l-1-1.2
				c-1.6-1.9-3.2-3.9-4.8-5.9l1.4-0.1C-2165.3,654.8-2168.3,658.4-2171.5,662z"/>
		</g>
	</g>
	<g id="XMLID_633_">
		
			<ellipse id="XMLID_129_" transform="matrix(0.9581 0.2864 -0.2864 0.9581 88.2464 676.723)" class="st2" cx="-2269.4" cy="640.1" rx="5.9" ry="2.7"/>
		<g id="XMLID_20_">
			<polygon id="XMLID_118_" class="st5" points="-2258.5,652.3 -2321.8,653.5 -2350.3,635.5 -2287,634.3 			"/>
			<polygon id="XMLID_117_" class="st2" points="-2350.3,635.5 -2350.2,639 -2322.2,657 -2258.4,655.8 -2258.5,652.3 -2321.8,653.5 
							"/>
			<polygon id="XMLID_116_" class="st5" points="-2258.5,646.6 -2321.8,647.8 -2350.3,629.8 -2287,628.6 			"/>
			<polygon id="XMLID_115_" class="st2" points="-2350.3,629.8 -2350.2,633.3 -2322.2,651.4 -2258.4,650.1 -2258.5,646.6 
				-2321.8,647.8 			"/>
			<polygon id="XMLID_90_" class="st5" points="-2258.5,641.9 -2321.8,643.1 -2350.3,625.1 -2287,623.8 			"/>
			<polygon id="XMLID_89_" class="st2" points="-2350.3,625.1 -2350.2,628.6 -2322.2,646.6 -2258.4,645.4 -2258.5,641.9 
				-2321.8,643.1 			"/>
			<polygon id="XMLID_87_" class="st5" points="-2258.6,636.6 -2321.9,637.8 -2350.4,619.8 -2287.1,618.5 			"/>
			<polygon id="XMLID_86_" class="st2" points="-2350.4,619.8 -2350.3,623.3 -2322.3,641.3 -2258.5,640.1 -2258.6,636.6 
				-2321.9,637.8 			"/>
			<polygon id="XMLID_84_" class="st5" points="-2258.7,631.3 -2322,632.5 -2350.5,614.5 -2287.2,613.2 			"/>
			<polygon id="XMLID_83_" class="st2" points="-2350.5,614.5 -2350.4,618 -2322.4,636 -2258.6,634.8 -2258.7,631.3 -2322,632.5 			
				"/>
			<polygon id="XMLID_81_" class="st5" points="-2258.8,625.9 -2322.1,627.2 -2350.6,609.2 -2287.3,607.9 			"/>
			<polygon id="XMLID_80_" class="st2" points="-2350.6,609.2 -2350.5,612.7 -2322.5,630.7 -2258.7,629.5 -2258.8,626 
				-2322.1,627.2 			"/>
			<polygon id="XMLID_78_" class="st5" points="-2258.9,620.6 -2322.2,621.9 -2350.7,603.9 -2287.4,602.6 			"/>
			<polygon id="XMLID_77_" class="st2" points="-2350.7,603.9 -2350.6,607.4 -2322.6,625.4 -2258.8,624.2 -2258.9,620.6 
				-2322.2,621.9 			"/>
			<polygon id="XMLID_75_" class="st5" points="-2259,615.3 -2322.3,616.6 -2350.8,598.6 -2287.5,597.3 			"/>
			<polygon id="XMLID_74_" class="st2" points="-2350.8,598.6 -2350.7,602.1 -2322.7,620.1 -2258.9,618.9 -2259,615.3 
				-2322.3,616.6 			"/>
			<polygon id="XMLID_133_" class="st2" points="-2259,610.9 -2322.4,612.1 -2350.9,594.1 -2287.5,592.9 			"/>
			<polygon id="XMLID_132_" class="st5" points="-2264.2,609.7 -2320.8,610.8 -2346.2,595.3 -2289.7,594.3 			"/>
			<polygon id="XMLID_131_" class="st2" points="-2350.9,594.1 -2350.8,597.7 -2322.8,615.7 -2259,614.5 -2259.1,610.9 
				-2322.4,612.1 			"/>
			
				<ellipse id="XMLID_130_" transform="matrix(0.9581 0.2864 -0.2864 0.9581 72.9497 695.1694)" class="st2" cx="-2340.2" cy="597" rx="5.9" ry="2.7"/>
			
				<ellipse id="XMLID_128_" transform="matrix(0.9663 0.2576 -0.2576 0.9663 78.6646 617.9917)" class="st2" cx="-2319.4" cy="609.2" rx="5.2" ry="2.4"/>
			
				<ellipse id="XMLID_52_" transform="matrix(0.9663 0.2576 -0.2576 0.9663 76.3576 609.4841)" class="st2" cx="-2288" cy="596.2" rx="5.5" ry="2.4"/>
			<polygon id="XMLID_69_" class="st4" points="-2322.9,593.6 -2302.4,611.8 -2282.6,611.4 -2303.1,593.2 			"/>
			
				<rect id="XMLID_68_" x="-2302.1" y="611.6" transform="matrix(0.9998 -1.933305e-002 1.933305e-002 0.9998 -12.5881 -44.1975)" class="st4" width="19.8" height="34.8"/>
		</g>
		
			<ellipse id="XMLID_55_" transform="matrix(0.9663 0.2576 -0.2576 0.9663 78.5636 628.6298)" class="st2" cx="-2360" cy="614.2" rx="5.5" ry="2.4"/>
		<g id="XMLID_49_">
			<polygon id="XMLID_85_" class="st5" points="-2330.5,664 -2393.9,665.2 -2422.4,647.2 -2359,646 			"/>
			<polygon id="XMLID_82_" class="st2" points="-2422.4,647.2 -2422.3,650.8 -2394.2,668.8 -2330.5,667.6 -2330.6,664 
				-2393.9,665.2 			"/>
			<polygon id="XMLID_79_" class="st5" points="-2330.5,659.3 -2393.9,660.5 -2422.4,642.5 -2359,641.3 			"/>
			<polygon id="XMLID_76_" class="st2" points="-2422.4,642.5 -2422.3,646 -2394.2,664.1 -2330.5,662.8 -2330.6,659.3 
				-2393.9,660.5 			"/>
			<polygon id="XMLID_72_" class="st5" points="-2330.5,654.5 -2393.9,655.8 -2422.4,637.8 -2359,636.5 			"/>
			<polygon id="XMLID_73_" class="st2" points="-2422.4,637.8 -2422.3,641.3 -2394.2,659.3 -2330.5,658.1 -2330.6,654.5 
				-2393.9,655.8 			"/>
			<polygon id="XMLID_71_" class="st2" points="-2422.4,637.8 -2422.3,641.3 -2394.2,659.3 -2330.5,658.1 -2330.6,654.5 
				-2393.9,655.8 			"/>
			<polygon id="XMLID_70_" class="st5" points="-2330.6,649.2 -2394,650.5 -2422.5,632.5 -2359.1,631.2 			"/>
			<polygon id="XMLID_67_" class="st2" points="-2422.5,632.5 -2422.4,636 -2394.3,654 -2330.6,652.8 -2330.7,649.2 -2394,650.5 			
				"/>
			<polygon id="XMLID_66_" class="st5" points="-2330.7,643.9 -2394.1,645.2 -2422.6,627.2 -2359.2,625.9 			"/>
			<polygon id="XMLID_65_" class="st2" points="-2422.6,627.2 -2422.5,630.7 -2394.4,648.7 -2330.7,647.5 -2330.8,643.9 
				-2394.1,645.2 			"/>
			<polygon id="XMLID_64_" class="st5" points="-2330.8,638.6 -2394.2,639.9 -2422.7,621.8 -2359.3,620.6 			"/>
			<polygon id="XMLID_63_" class="st2" points="-2422.7,621.8 -2422.6,625.4 -2394.5,643.4 -2330.8,642.2 -2330.9,638.6 
				-2394.2,639.9 			"/>
			<polygon id="XMLID_62_" class="st5" points="-2330.9,633.3 -2394.3,634.6 -2422.8,616.5 -2359.4,615.3 			"/>
			<polygon id="XMLID_61_" class="st2" points="-2422.8,616.5 -2422.7,620.1 -2394.6,638.1 -2330.9,636.9 -2331,633.3 
				-2394.3,634.6 			"/>
			<polygon id="XMLID_60_" class="st2" points="-2331,628.9 -2394.4,630.1 -2422.9,612.1 -2359.5,610.9 			"/>
			<polygon id="XMLID_59_" class="st5" points="-2336.2,627.7 -2392.7,628.8 -2418.2,613.3 -2361.6,612.2 			"/>
			<polygon id="XMLID_58_" class="st2" points="-2422.9,612.1 -2422.8,615.7 -2394.7,633.7 -2331,632.5 -2331.1,628.9 
				-2394.4,630.1 			"/>
			
				<ellipse id="XMLID_57_" transform="matrix(0.9581 0.2864 -0.2864 0.9581 75.088 716.5336)" class="st2" cx="-2412.1" cy="615" rx="5.9" ry="2.7"/>
			
				<ellipse id="XMLID_56_" transform="matrix(0.9663 0.2576 -0.2576 0.9663 80.8706 637.1373)" class="st2" cx="-2391.3" cy="627.2" rx="5.2" ry="2.4"/>
			<polygon id="XMLID_54_" class="st4" points="-2394.9,611.6 -2374.4,629.8 -2354.6,629.4 -2375.1,611.2 			"/>
		</g>
		
			<rect id="XMLID_50_" x="-2374" y="629.6" transform="matrix(0.9998 -1.933305e-002 1.933305e-002 0.9998 -12.9867 -45.5845)" class="st4" width="19.8" height="38.6"/>
		<g id="XMLID_88_">
			<polygon id="XMLID_110_" class="st5" points="-2265.1,689.2 -2328.4,690.4 -2356.9,672.4 -2293.6,671.2 			"/>
			<polygon id="XMLID_109_" class="st2" points="-2356.9,672.4 -2356.9,676 -2328.8,694 -2265,692.7 -2265.2,689.2 -2328.4,690.4 
							"/>
			<polygon id="XMLID_108_" class="st5" points="-2265.2,683.9 -2328.5,685.1 -2357,667.1 -2293.7,665.9 			"/>
			<polygon id="XMLID_107_" class="st2" points="-2357,667.1 -2357,670.6 -2328.9,688.7 -2265.1,687.4 -2265.3,683.9 -2328.5,685.1 
							"/>
			<polygon id="XMLID_106_" class="st5" points="-2265.3,678.6 -2328.6,679.8 -2357.1,661.8 -2293.8,660.6 			"/>
			<polygon id="XMLID_105_" class="st2" points="-2357.1,661.8 -2357.1,665.3 -2329,683.4 -2265.2,682.1 -2265.4,678.6 
				-2328.6,679.8 			"/>
			<polygon id="XMLID_104_" class="st5" points="-2265.4,673.3 -2328.7,674.5 -2357.2,656.5 -2293.9,655.3 			"/>
			<polygon id="XMLID_103_" class="st2" points="-2357.2,656.5 -2357.2,660 -2329.1,678.1 -2265.3,676.8 -2265.5,673.3 
				-2328.7,674.5 			"/>
			<polygon id="XMLID_102_" class="st5" points="-2265.5,668 -2328.8,669.2 -2357.3,651.2 -2294,650 			"/>
			<polygon id="XMLID_101_" class="st2" points="-2357.3,651.2 -2357.3,654.7 -2329.2,672.8 -2265.4,671.5 -2265.6,668 
				-2328.8,669.2 			"/>
			<polygon id="XMLID_100_" class="st5" points="-2265.6,662.7 -2328.9,663.9 -2357.4,645.9 -2294.1,644.7 			"/>
			<polygon id="XMLID_99_" class="st2" points="-2357.4,645.9 -2357.4,649.4 -2329.3,667.5 -2265.5,666.2 -2265.7,662.7 
				-2328.9,663.9 			"/>
			<polygon id="XMLID_98_" class="st2" points="-2265.7,658.3 -2329,659.5 -2357.5,641.5 -2294.2,640.3 			"/>
			<polygon id="XMLID_97_" class="st5" points="-2270.9,657.1 -2327.4,658.2 -2352.8,642.7 -2296.3,641.6 			"/>
			<polygon id="XMLID_96_" class="st2" points="-2357.5,641.5 -2357.5,645 -2329.4,663 -2265.6,661.8 -2265.8,658.3 -2329,659.5 			
				"/>
			
				<ellipse id="XMLID_95_" transform="matrix(0.9581 0.2864 -0.2864 0.9581 86.2317 699.0508)" class="st2" cx="-2346.8" cy="644.3" rx="5.9" ry="2.7"/>
			
				<ellipse id="XMLID_94_" transform="matrix(0.9663 0.2576 -0.2576 0.9663 90.6373 621.2969)" class="st2" cx="-2326" cy="656.6" rx="5.2" ry="2.4"/>
			
				<ellipse id="XMLID_93_" transform="matrix(0.9663 0.2576 -0.2576 0.9663 88.3303 612.7894)" class="st2" cx="-2294.7" cy="643.5" rx="5.5" ry="2.4"/>
			<polygon id="XMLID_92_" class="st4" points="-2329.5,640.9 -2309,659.1 -2289.3,658.7 -2309.8,640.6 			"/>
			
				<rect id="XMLID_91_" x="-2308.7" y="658.9" transform="matrix(0.9998 -1.933305e-002 1.933305e-002 0.9998 -13.5047 -44.3168)" class="st4" width="19.8" height="34.8"/>
		</g>
		
			<ellipse id="XMLID_111_" transform="matrix(0.9581 0.2864 -0.2864 0.9581 92.6187 679.0244)" class="st2" cx="-2275.1" cy="656.2" rx="5.9" ry="2.7"/>
		
			<ellipse id="XMLID_634_" transform="matrix(0.9581 0.2864 -0.2864 0.9581 79.0258 675.3744)" class="st2" cx="-2269.4" cy="607.9" rx="5.9" ry="2.7"/>
		
			<ellipse id="XMLID_112_" transform="matrix(0.9581 0.2864 -0.2864 0.9581 88.2464 676.723)" class="st2" cx="-2269.4" cy="640.1" rx="5.9" ry="2.7"/>
		
			<ellipse id="XMLID_113_" transform="matrix(0.9581 0.2864 -0.2864 0.9581 81.1641 696.7386)" class="st2" cx="-2341.4" cy="625.9" rx="5.9" ry="2.7"/>
		
			<ellipse id="XMLID_114_" transform="matrix(0.9663 0.2576 -0.2576 0.9663 78.4997 629.1177)" class="st2" cx="-2361.9" cy="614.2" rx="5.5" ry="2.4"/>
	</g>
	<polygon id="XMLID_120_" class="st5" points="-1962,848 -1899,848 -1930.5,811.8 	"/>
	<polygon id="XMLID_119_" class="st9" points="-1962,857 -1899,857 -1930.5,893.2 	"/>
	<polyline id="XMLID_122_" class="st10" points="-2598,918.7 -2471.7,827 -2298.9,918.7 -2226,872 -2095.2,952 -1860,777 -1739,897 
		-1663,864.1 	"/>
	<path id="XMLID_178_" class="st10" d="M-1542,895.5"/>
	<rect id="XMLID_247_" x="-1574" y="505" class="st2" width="65" height="63"/>
	<rect id="XMLID_476_" x="-1574" y="575" class="st11" width="65" height="63"/>
	<rect id="XMLID_277_" x="-1508" y="505" class="st5" width="65" height="63"/>
	<rect id="XMLID_363_" x="-1442" y="505" class="st4" width="65" height="63"/>
	<rect id="XMLID_405_" x="-1376" y="505" class="st6" width="65" height="63"/>
	<rect id="XMLID_248_" x="-1560" y="529.8" style="fill:none;" width="43.7" height="13.3"/>
	<text id="XMLID_249_" transform="matrix(1 0 0 1 -1559.9996 536.8635)" style="font-family:'Rajdhani-Medium'; font-size:10px;">#2B6E36</text>
	<rect id="XMLID_478_" x="-1560" y="599.8" style="fill:none;" width="43.7" height="13.3"/>
	<text id="XMLID_477_" transform="matrix(1 0 0 1 -1559.9996 606.8635)" style="font-family:'Rajdhani-Medium'; font-size:10px;">#D7E0D3</text>
	<rect id="XMLID_279_" x="-1497.3" y="529.8" style="fill:none;" width="43.7" height="13.3"/>
	<text id="XMLID_278_" transform="matrix(1 0 0 1 -1497.333 536.8635)" style="font-family:'Rajdhani-Medium'; font-size:10px;">#398E43</text>
	<rect id="XMLID_365_" x="-1431.3" y="530.3" style="fill:none;" width="43.7" height="13.3"/>
	
		<text id="XMLID_364_" transform="matrix(1 0 0 1 -1431.333 537.3635)" style="font-family:'Rajdhani-Medium'; font-size:10px; letter-spacing:1;">#E0C95A</text>
	<rect id="XMLID_420_" x="-1365.3" y="530.3" style="fill:none;" width="43.7" height="13.3"/>
	
		<text id="XMLID_419_" transform="matrix(1 0 0 1 -1365.333 537.3635)" style="font-family:'Rajdhani-Medium'; font-size:10px; letter-spacing:1;">#D6B736</text>
	<rect id="XMLID_449_" x="-1310" y="505" class="st3" width="65" height="63"/>
	<rect id="XMLID_448_" x="-1299.3" y="530.3" style="fill:none;" width="43.7" height="13.3"/>
	
		<text id="XMLID_447_" transform="matrix(1 0 0 1 -1299.333 537.3635)" style="font-family:'Rajdhani-Medium'; font-size:10px; letter-spacing:1;">#BA902</text>
	<rect id="XMLID_506_" x="-1497.3" y="599.8" style="fill:none;" width="43.7" height="13.3"/>
	
		<text id="XMLID_505_" transform="matrix(1 0 0 1 -1497.333 606.8635)" class="st11" style="font-family:'Rajdhani-Medium'; font-size:10px;">#283028</text>
	<rect id="XMLID_535_" x="-1507" y="575" class="st0" width="65" height="63"/>
	<rect id="XMLID_534_" x="-1497.3" y="599.8" style="fill:none;" width="43.7" height="13.3"/>
	
		<text id="XMLID_532_" transform="matrix(1 0 0 1 -1497.333 606.8635)" class="st11" style="font-family:'Rajdhani-Medium'; font-size:10px;">#283028</text>
	<rect id="XMLID_539_" x="-1440" y="575" class="st9" width="65" height="63"/>
	<g id="XMLID_537_">
		<rect id="XMLID_1302_" x="-1430.3" y="599.8" style="fill:none;" width="43.7" height="13.3"/>
		<text id="XMLID_1301_" transform="matrix(1 0 0 1 -1430.333 606.8635)" style="font-family:'Rajdhani-Medium'; font-size:10px;">#283028</text>
	</g>
	<g id="XMLID_949_">
		<rect id="XMLID_968_" x="96" y="1234" class="st3" width="74" height="8"/>
		<rect id="XMLID_967_" x="94" y="1242" class="st3" width="80" height="12"/>
		<path id="XMLID_966_" class="st4" d="M184.5,1071.2c0,0,9.1,0.8,14.6-9.2h23.4c0,0-25.9,94.9-65.8,95l7.6-11.4
			c0,0,26.6-8.6,46.5-75.6h-7.6c0,0-13.8,17.6-25.2,10.9L184.5,1071.2z"/>
		<path id="XMLID_965_" class="st4" d="M82.4,1071.2c0,0-9.1,3.8-14.6-9.2H44.4c0,0,25.9,94.9,65.8,95l-7.6-11.4
			c0,0-26.6-8.6-46.5-75.6h7.6c0,0,13.8,17.6,25.2,10.9L82.4,1071.2z"/>
		<path id="XMLID_964_" class="st4" d="M170.3,1234H97.5c22,0,31.1-41.4,31.1-41.4s-8-2.7-7.4-6c0.7-3.3,5.8-7.3,5.8-7.3V1167h12
			v12.3c0,0,6,3.7,6.7,7c0.6,3.3-6.5,6.3-6.5,6.3S148.2,1234,170.3,1234z"/>
		<path id="XMLID_963_" class="st4" d="M133,1170.9c-47.9,0-52.7-108.9-52.7-108.9h105.4C185.7,1062,180.9,1170.9,133,1170.9z"/>
		<polygon id="XMLID_962_" class="st2" points="181,1201.9 193.3,1191.2 211.4,1194.5 194.5,1207.5 		"/>
		<polygon id="XMLID_961_" class="st5" points="181.5,1199.6 177.5,1183.7 188.7,1169 192.6,1190 		"/>
		<polygon id="XMLID_960_" class="st2" points="201.5,1183.6 209.7,1174.4 223.6,1175 212.2,1186.4 		"/>
		<polygon id="XMLID_959_" class="st5" points="201.7,1181.8 197.1,1170.3 204,1158.2 209.1,1173.5 		"/>
		<polygon id="XMLID_958_" class="st5" points="215.8,1167 211.3,1155.6 218.2,1143.5 223.2,1158.8 		"/>
		<polygon id="XMLID_957_" class="st2" points="88,1201.9 75.7,1191.2 57.5,1194.5 74.5,1207.5 		"/>
		<polygon id="XMLID_956_" class="st5" points="87.5,1199.6 91.4,1183.7 80.3,1169 76.4,1190 		"/>
		<polygon id="XMLID_955_" class="st2" points="67.4,1183.6 59.3,1174.4 45.4,1175 56.7,1186.4 		"/>
		<polygon id="XMLID_954_" class="st5" points="67.3,1181.8 71.8,1170.3 64.9,1158.2 59.9,1173.5 		"/>
		<polygon id="XMLID_953_" class="st5" points="53.2,1167 57.7,1155.6 50.8,1143.5 45.8,1158.8 		"/>
		<path id="XMLID_952_" class="st6" d="M134,1062v108.5c0,0-43.4,5.5-53.7-108.5H134z"/>
		<path id="XMLID_951_" class="st6" d="M134,1167v67H97.9c0,0,23.5-5,30.7-41.4c0,0-7.7-2.3-7.4-6c0.3-3.7,5.8-7.3,5.8-7.3V1167H134
			z"/>
		<path id="XMLID_950_" class="st3" d="M123.1,1183.2c0,0,9.5,10,20.3,0c0,0,5.4,4.4-4.5,9.2C129.1,1197.3,117,1188.5,123.1,1183.2z
			"/>
	</g>
	<g id="XMLID_920_">
		<rect id="XMLID_948_" x="146" y="505" class="st2" width="6" height="28"/>
		<polygon id="XMLID_947_" class="st2" points="190,609 202,609 202,603.7 215,603.6 215,678 202,678 202,616 190,616 		"/>
		<polygon id="XMLID_946_" class="st2" points="106,609 94,609 94,603.7 82,603.6 82,678 94,678 94,616 106,616 		"/>
		<rect id="XMLID_945_" x="135" y="591" class="st2" width="26" height="21"/>
		<rect id="XMLID_944_" x="113.5" y="534.4" class="st5" width="72.8" height="57"/>
		<rect id="XMLID_943_" x="153.6" y="737.2" class="st5" width="24" height="14"/>
		<rect id="XMLID_942_" x="141.5" y="504.9" class="st5" width="17.8" height="9.5"/>
		<rect id="XMLID_941_" x="118.1" y="737.2" class="st5" width="24" height="14"/>
		<rect id="XMLID_940_" x="123" y="683.7" class="st2" width="13.7" height="56.7"/>
		<rect id="XMLID_939_" x="159.4" y="683.7" class="st2" width="11.9" height="56.7"/>
		<rect id="XMLID_938_" x="104" y="603.6" class="st5" width="91.7" height="99.1"/>
		<circle id="XMLID_937_" class="st7" cx="134" cy="557.3" r="10"/>
		<circle id="XMLID_936_" class="st7" cx="166.1" cy="557.3" r="10"/>
		<rect id="XMLID_935_" x="135" y="526" class="st5" width="30" height="9"/>
		<rect id="XMLID_934_" x="118.3" y="618.7" class="st8" width="62.8" height="41"/>
		<rect id="XMLID_933_" x="118.3" y="665.1" class="st8" width="9.6" height="9.6"/>
		<rect id="XMLID_932_" x="118.3" y="678.8" class="st8" width="9.6" height="9.6"/>
		<rect id="XMLID_931_" x="131.9" y="678.8" class="st8" width="9.6" height="9.6"/>
		<rect id="XMLID_930_" x="145.6" y="678.8" class="st8" width="9.6" height="9.6"/>
		<rect id="XMLID_929_" x="159.2" y="678.8" class="st8" width="9.6" height="9.6"/>
		<rect id="XMLID_928_" x="172.9" y="678.8" class="st8" width="9.6" height="9.6"/>
		<rect id="XMLID_927_" x="131.9" y="665.1" class="st8" width="9.6" height="9.6"/>
		<rect id="XMLID_926_" x="145.6" y="665.1" class="st8" width="9.6" height="9.6"/>
		<rect id="XMLID_925_" x="159.2" y="665.1" class="st8" width="9.6" height="9.6"/>
		<rect id="XMLID_924_" x="172.9" y="665.1" class="st8" width="9.6" height="9.6"/>
		<polygon id="XMLID_923_" class="st5" points="199,691 199,676 222,676 222,691 213,691 213,688 206,688 206,691 		"/>
		<polygon id="XMLID_922_" class="st5" points="77,691 77,676 100,676 100,691 93,691 93,688 84,688 84,691 		"/>
		<g id="XMLID_921_">
			<path id="XMLID_257_" class="st6" d="M118.3,659.7c3.5-5.4,7.2-10.8,10.9-16.1l0.6-0.9l0.8,0.8c2.4,2.5,4.7,5.1,7,7.6l-1.9,0.2
				c2.3-4.3,4.6-8.5,7-12.8c1.2-2.1,2.4-4.2,3.5-6.4l3.6-6.4l1.2-2.1l1.4,2l7.5,11.2l7.4,11.3l-2.2,0.1l3.9-7.5l4-7.4l4.1-7.4
				c1.4-2.5,2.8-4.9,4.2-7.3c-1.1,2.6-2.2,5.2-3.3,7.8l-3.5,7.7l-3.5,7.7l-3.6,7.6l-0.9,2l-1.3-1.8l-7.7-11.1l-7.6-11.2l2.5-0.1
				l-3.6,6.3c-1.2,2.1-2.4,4.2-3.6,6.3c-2.5,4.2-4.9,8.4-7.4,12.6l-0.9,1.4l-1-1.2c-2.2-2.6-4.4-5.3-6.6-8l1.4-0.1
				C126.5,649.7,122.5,654.7,118.3,659.7z"/>
		</g>
	</g>
	<g id="XMLID_164_">
		
			<ellipse id="XMLID_919_" transform="matrix(0.9581 0.2864 -0.2864 0.9581 52.2035 -66.9236)" class="st2" cx="254.9" cy="145" rx="8.6" ry="3.9"/>
		<g id="XMLID_894_">
			<polygon id="XMLID_918_" class="st5" points="271.1,163 177.7,164.8 135.7,138.3 229.1,136.5 			"/>
			<polygon id="XMLID_917_" class="st2" points="135.7,138.3 135.8,143.5 177.2,170 271.2,168.2 271,163 177.8,164.8 			"/>
			<polygon id="XMLID_916_" class="st5" points="271.1,154.6 177.7,156.5 135.7,129.9 229.1,128.1 			"/>
			<polygon id="XMLID_915_" class="st2" points="135.7,129.9 135.8,135.1 177.2,161.7 271.2,159.9 271,154.6 177.8,156.4 			"/>
			<polygon id="XMLID_914_" class="st5" points="271.1,147.7 177.7,149.5 135.7,122.9 229.1,121.1 			"/>
			<polygon id="XMLID_913_" class="st2" points="135.7,122.9 135.8,128.1 177.2,154.7 271.2,152.9 271,147.7 177.8,149.5 			"/>
			<polygon id="XMLID_912_" class="st5" points="270.9,139.9 177.6,141.7 135.6,115.1 228.9,113.3 			"/>
			<polygon id="XMLID_911_" class="st2" points="135.6,115.1 135.7,120.3 177.1,146.9 271,145.1 270.8,139.9 177.6,141.7 			"/>
			<polygon id="XMLID_910_" class="st5" points="270.8,132 177.4,133.8 135.4,107.3 228.8,105.5 			"/>
			<polygon id="XMLID_909_" class="st2" points="135.4,107.3 135.5,112.5 176.9,139.1 270.9,137.2 270.7,132 177.5,133.8 			"/>
			<polygon id="XMLID_908_" class="st5" points="270.6,124.2 177.3,126 135.3,99.5 228.6,97.7 			"/>
			<polygon id="XMLID_907_" class="st2" points="135.3,99.5 135.4,104.7 176.8,131.2 270.7,129.4 270.5,124.2 177.3,126 			"/>
			<polygon id="XMLID_906_" class="st5" points="270.5,116.4 177.1,118.2 135.1,91.7 228.5,89.9 			"/>
			<polygon id="XMLID_905_" class="st2" points="135.1,91.7 135.2,96.9 176.6,123.4 270.6,121.6 270.4,116.4 177.2,118.2 			"/>
			<polygon id="XMLID_904_" class="st5" points="270.3,108.6 177,110.4 135,83.8 228.3,82 			"/>
			<polygon id="XMLID_903_" class="st2" points="135,83.8 135.1,89.1 176.5,115.6 270.4,113.8 270.2,108.6 177,110.4 			"/>
			<polygon id="XMLID_902_" class="st2" points="270.2,102.1 176.9,103.9 134.9,77.3 228.2,75.5 			"/>
			<polygon id="XMLID_901_" class="st5" points="262.6,100.3 179.3,101.9 141.8,79.1 225.1,77.5 			"/>
			<polygon id="XMLID_900_" class="st2" points="134.9,77.3 135,82.5 176.3,109.1 270.3,107.3 270.1,102.1 176.9,103.9 			"/>
			
				<ellipse id="XMLID_899_" transform="matrix(0.9581 0.2864 -0.2864 0.9581 29.6616 -39.7399)" class="st2" cx="150.7" cy="81.5" rx="8.6" ry="3.9"/>
			
				<ellipse id="XMLID_898_" transform="matrix(0.9663 0.2576 -0.2576 0.9663 31.7724 -43.3482)" class="st2" cx="181.3" cy="99.6" rx="7.6" ry="3.6"/>
			
				<ellipse id="XMLID_897_" transform="matrix(0.9663 0.2576 -0.2576 0.9663 28.3727 -55.8855)" class="st2" cx="227.5" cy="80.3" rx="8.1" ry="3.6"/>
			<polygon id="XMLID_896_" class="st4" points="176.1,76.5 206.3,103.3 235.4,102.8 205.3,76 			"/>
			
				<rect id="XMLID_895_" x="206.8" y="103" transform="matrix(0.9998 -1.933305e-002 1.933305e-002 0.9998 -2.4459 4.3037)" class="st4" width="29.1" height="51.2"/>
		</g>
		
			<ellipse id="XMLID_893_" transform="matrix(0.9663 0.2576 -0.2576 0.9663 31.6236 -27.6714)" class="st2" cx="121.4" cy="106.9" rx="8.1" ry="3.6"/>
		<g id="XMLID_871_">
			<polygon id="XMLID_892_" class="st5" points="164.9,180.3 71.5,182.1 29.5,155.6 122.9,153.8 			"/>
			<polygon id="XMLID_891_" class="st2" points="29.5,155.6 29.6,160.8 71,187.3 165,185.5 164.8,180.3 71.5,182.1 			"/>
			<polygon id="XMLID_890_" class="st5" points="164.9,173.3 71.5,175.1 29.5,148.6 122.9,146.8 			"/>
			<polygon id="XMLID_889_" class="st2" points="29.5,148.6 29.6,153.8 71,180.4 165,178.6 164.8,173.3 71.5,175.1 			"/>
			<polygon id="XMLID_888_" class="st5" points="164.9,166.4 71.5,168.2 29.5,141.6 122.9,139.8 			"/>
			<polygon id="XMLID_887_" class="st2" points="29.5,141.6 29.6,146.8 71,173.4 165,171.6 164.8,166.4 71.5,168.2 			"/>
			<polygon id="XMLID_886_" class="st2" points="29.5,141.6 29.6,146.8 71,173.4 165,171.6 164.8,166.4 71.5,168.2 			"/>
			<polygon id="XMLID_885_" class="st5" points="164.7,158.6 71.4,160.4 29.4,133.8 122.7,132 			"/>
			<polygon id="XMLID_884_" class="st2" points="29.4,133.8 29.5,139 70.8,165.6 164.8,163.8 164.6,158.6 71.4,160.4 			"/>
			<polygon id="XMLID_883_" class="st5" points="164.6,150.7 71.2,152.5 29.2,126 122.6,124.2 			"/>
			<polygon id="XMLID_882_" class="st2" points="29.2,126 29.3,131.2 70.7,157.8 164.7,155.9 164.5,150.7 71.2,152.5 			"/>
			<polygon id="XMLID_881_" class="st5" points="164.4,142.9 71.1,144.7 29.1,118.2 122.4,116.4 			"/>
			<polygon id="XMLID_880_" class="st2" points="29.1,118.2 29.2,123.4 70.5,149.9 164.5,148.1 164.3,142.9 71.1,144.7 			"/>
			<polygon id="XMLID_879_" class="st5" points="164.3,135.1 70.9,136.9 28.9,110.4 122.3,108.6 			"/>
			<polygon id="XMLID_878_" class="st2" points="28.9,110.4 29,115.6 70.4,142.1 164.4,140.3 164.2,135.1 70.9,136.9 			"/>
			<polygon id="XMLID_877_" class="st2" points="164.2,128.6 70.8,130.4 28.8,103.8 122.2,102 			"/>
			<polygon id="XMLID_876_" class="st5" points="156.5,126.8 73.2,128.4 35.7,105.6 119,104 			"/>
			<polygon id="XMLID_875_" class="st2" points="28.8,103.8 28.9,109.1 70.3,135.6 164.3,133.8 164,128.6 70.8,130.4 			"/>
			
				<ellipse id="XMLID_874_" transform="matrix(0.9581 0.2864 -0.2864 0.9581 32.8127 -8.2564)" class="st2" cx="44.6" cy="108.1" rx="8.6" ry="3.9"/>
			
				<ellipse id="XMLID_873_" transform="matrix(0.9663 0.2576 -0.2576 0.9663 35.0233 -15.1341)" class="st2" cx="75.3" cy="126.1" rx="7.6" ry="3.6"/>
			<polygon id="XMLID_872_" class="st4" points="70.1,103.1 100.2,129.8 129.4,129.3 99.2,102.5 			"/>
		</g>
		
			<rect id="XMLID_870_" x="100.8" y="129.5" transform="matrix(0.9998 -1.933305e-002 1.933305e-002 0.9998 -3.0334 2.2598)" class="st4" width="29.1" height="56.9"/>
		<g id="XMLID_320_">
			<polygon id="XMLID_869_" class="st5" points="261.3,217.4 168,219.2 126,192.7 219.3,190.9 			"/>
			<polygon id="XMLID_868_" class="st2" points="126,192.7 126.1,197.9 167.4,224.5 261.4,222.7 261.2,217.4 168,219.2 			"/>
			<polygon id="XMLID_867_" class="st5" points="261.2,209.6 167.8,211.4 125.8,184.9 219.2,183.1 			"/>
			<polygon id="XMLID_866_" class="st2" points="125.8,184.9 125.9,190.1 167.3,216.7 261.3,214.8 261.1,209.6 167.8,211.4 			"/>
			<polygon id="XMLID_865_" class="st5" points="261,201.8 167.7,203.6 125.7,177.1 219,175.3 			"/>
			<polygon id="XMLID_864_" class="st2" points="125.7,177.1 125.8,182.3 167.1,208.8 261.1,207 260.9,201.8 167.7,203.6 			"/>
			<polygon id="XMLID_863_" class="st5" points="260.9,194 167.5,195.8 125.5,169.3 218.9,167.4 			"/>
			<polygon id="XMLID_862_" class="st2" points="125.5,169.3 125.6,174.5 167,201 261,199.2 260.8,194 167.5,195.8 			"/>
			<polygon id="XMLID_861_" class="st5" points="260.7,186.2 167.4,188 125.4,161.4 218.7,159.6 			"/>
			<polygon id="XMLID_860_" class="st2" points="125.4,161.4 125.5,166.6 166.8,193.2 260.8,191.4 260.6,186.2 167.4,188 			"/>
			<polygon id="XMLID_859_" class="st5" points="260.6,178.4 167.2,180.2 125.2,153.6 218.6,151.8 			"/>
			<polygon id="XMLID_858_" class="st2" points="125.2,153.6 125.3,158.8 166.7,185.4 260.7,183.6 260.5,178.4 167.2,180.2 			"/>
			<polygon id="XMLID_857_" class="st2" points="260.4,171.9 167.1,173.7 125.1,147.1 218.4,145.3 			"/>
			<polygon id="XMLID_856_" class="st5" points="252.8,170.1 169.5,171.7 132,148.9 215.3,147.3 			"/>
			<polygon id="XMLID_326_" class="st2" points="125.1,147.1 125.2,152.3 166.6,178.9 260.5,177.1 260.3,171.9 167.1,173.7 			"/>
			
				<ellipse id="XMLID_325_" transform="matrix(0.9581 0.2864 -0.2864 0.9581 49.2346 -34.02)" class="st2" cx="140.9" cy="151.3" rx="8.6" ry="3.9"/>
			
				<ellipse id="XMLID_324_" transform="matrix(0.9663 0.2576 -0.2576 0.9663 49.416 -38.4774)" class="st2" cx="171.6" cy="169.4" rx="7.6" ry="3.6"/>
			
				<ellipse id="XMLID_323_" transform="matrix(0.9663 0.2576 -0.2576 0.9663 46.0163 -51.0147)" class="st2" cx="217.7" cy="150.1" rx="8.1" ry="3.6"/>
			<polygon id="XMLID_322_" class="st4" points="166.4,146.3 196.5,173.1 225.7,172.5 195.5,145.7 			"/>
			
				<rect id="XMLID_321_" x="197" y="172.8" transform="matrix(0.9998 -1.933305e-002 1.933305e-002 0.9998 -3.7967 4.1279)" class="st4" width="29.1" height="51.2"/>
		</g>
		
			<ellipse id="XMLID_319_" transform="matrix(0.9581 0.2864 -0.2864 0.9581 58.6468 -63.5321)" class="st2" cx="246.5" cy="168.7" rx="8.6" ry="3.9"/>
		
			<ellipse id="XMLID_318_" transform="matrix(0.9581 0.2864 -0.2864 0.9581 38.6156 -68.9108)" class="st2" cx="254.9" cy="97.6" rx="8.6" ry="3.9"/>
		
			<ellipse id="XMLID_317_" transform="matrix(0.9581 0.2864 -0.2864 0.9581 52.2035 -66.9236)" class="st2" cx="254.9" cy="145" rx="8.6" ry="3.9"/>
		
			<ellipse id="XMLID_246_" transform="matrix(0.9581 0.2864 -0.2864 0.9581 41.7668 -37.4273)" class="st2" cx="148.8" cy="124.1" rx="8.6" ry="3.9"/>
		
			<ellipse id="XMLID_245_" transform="matrix(0.9663 0.2576 -0.2576 0.9663 31.5294 -26.9525)" class="st2" cx="118.6" cy="106.9" rx="8.1" ry="3.6"/>
	</g>
</g>
</svg>
