<?xml version="1.0" encoding="utf-8"?>
<!-- Generator: Adobe Illustrator 19.2.1, SVG Export Plug-In . SVG Version: 6.00 Build 0)  -->
<svg version="1.1" xmlns="http://www.w3.org/2000/svg" xmlns:xlink="http://www.w3.org/1999/xlink" x="0px" y="0px"
	 viewBox="0 0 306 206" style="enable-background:new 0 0 306 206;" xml:space="preserve">
<style type="text/css">
	.st0{fill:#222622;}
	.st1{fill:#FFFFFF;}
	.st2{fill:#2C6E36;}
</style>
<g id="Layer_2">
	<rect x="-0.3" class="st0" width="306.7" height="206"/>
</g>
<g id="Layer_1">
	<g>
		<g>
			<path class="st1" d="M94.6,158.8v-3.2c0-0.5,0.2-0.7,0.6-0.7h1.1c0.4,0,0.6,0.2,0.6,0.7v3.1c0,2.7,0.7,4.9,2.2,6.4
				c1.4,1.5,3.5,2.3,6.2,2.3h9.6c2.7,0,4.7-0.8,6.2-2.3c1.4-1.5,2.2-3.7,2.2-6.4v-4c0-2.5-1-4.5-3-6c-2-1.5-4.4-2.5-7.2-3.2
				c-2.8-0.7-5.6-1.3-8.4-2c-2.8-0.7-5.2-1.8-7.2-3.3c-2-1.5-3-3.7-3-6.3v-4.8c0-3.3,1-6,2.9-7.9c1.9-2,4.6-3,7.8-3h9.6
				c3.3,0,5.9,1,7.8,3c1.9,2,2.9,4.6,2.9,7.9v2.4c0,0.5-0.2,0.7-0.6,0.7H124c-0.4,0-0.6-0.2-0.6-0.7v-2.3c0-2.7-0.7-4.9-2.2-6.4
				c-1.4-1.5-3.5-2.3-6.2-2.3h-9.6c-2.7,0-4.7,0.8-6.2,2.3c-1.4,1.5-2.2,3.7-2.2,6.4v4.6c0,4,3.4,6.7,10.1,8.2
				c2.8,0.6,5.6,1.2,8.5,2c2.8,0.7,5.2,2,7.2,3.7c2,1.7,3,4,3,6.9v4.2c0,3.3-1,6-2.9,7.9c-2,2-4.6,3-7.8,3h-9.6c-3.3,0-5.9-1-7.8-3
				C95.6,164.8,94.6,162.1,94.6,158.8z"/>
			<path class="st1" d="M141.3,131.1h-5.3c-0.5,0-0.7-0.2-0.7-0.6v-1c0-0.4,0.2-0.6,0.7-0.6h5.3c0.5,0,0.7-0.2,0.7-0.6V122
				c0-0.5,0.2-0.7,0.6-0.7h1.1c0.4,0,0.6,0.2,0.6,0.7v6.2c0,0.4,0.2,0.6,0.7,0.6h10.3c0.5,0,0.7,0.2,0.7,0.6v1
				c0,0.4-0.2,0.6-0.7,0.6h-10.3c-0.5,0-0.7,0.2-0.7,0.6V159c0,2.7,0.8,4.8,2.4,6.3c1.6,1.5,3.7,2.2,6.4,2.2h3
				c0.5,0,0.7,0.2,0.7,0.6v1c0,0.4-0.2,0.6-0.7,0.6h-3c-3.3,0-6-1-8.1-2.9c-2.1-1.9-3.1-4.5-3.1-7.8v-27.3
				C142.1,131.3,141.8,131.1,141.3,131.1z"/>
			<path class="st1" d="M183.8,169.7H177c-3.3,0-5.9-1-7.8-3c-2-2-2.9-4.6-2.9-7.9v-19.1c0-3.3,1-6,2.9-7.9c1.9-2,4.6-3,7.8-3h6.8
				c3.3,0,5.9,1,7.8,3c1.9,2,2.9,4.6,2.9,7.9v19.1c0,3.3-1,6-2.9,7.9C189.7,168.7,187.1,169.7,183.8,169.7z M177,167.5h6.8
				c2.7,0,4.7-0.8,6.2-2.3c1.4-1.5,2.2-3.7,2.2-6.4v-18.9c0-2.7-0.7-4.9-2.2-6.4c-1.4-1.5-3.5-2.3-6.2-2.3H177
				c-2.7,0-4.7,0.8-6.2,2.3c-1.4,1.5-2.2,3.7-2.2,6.4v18.9c0,2.7,0.7,4.9,2.2,6.4C172.3,166.7,174.3,167.5,177,167.5z"/>
			<path class="st1" d="M228.6,168.1v1c0,0.4-0.2,0.6-0.7,0.6h-11.4c-3.3,0-5.9-1-7.8-3c-2-2-2.9-4.6-2.9-7.9v-19.1
				c0-3.3,1-6,2.9-7.9c1.9-2,4.6-3,7.8-3h11.4c0.5,0,0.7,0.2,0.7,0.6v1c0,0.4-0.2,0.6-0.7,0.6h-11.4c-2.7,0-4.7,0.8-6.2,2.3
				c-1.4,1.5-2.2,3.7-2.2,6.4v18.9c0,2.7,0.7,4.9,2.2,6.4c1.4,1.5,3.5,2.3,6.2,2.3h11.4C228.4,167.5,228.6,167.7,228.6,168.1z"/>
			<path class="st1" d="M239.6,169.7h-1.1c-0.4,0-0.6-0.2-0.6-0.7v-54.9c0-0.5,0.2-0.7,0.6-0.7h1.1c0.4,0,0.6,0.2,0.6,0.7V169
				C240.2,169.5,240,169.7,239.6,169.7z M260.7,128.9h1.1c0.6,0,0.7,0.2,0.3,0.7l-12.7,18.8v0.3l14.4,20.3c0.4,0.5,0.3,0.7-0.2,0.7
				h-1.4c-0.6,0-1.1-0.2-1.4-0.7l-14-20c-0.2-0.3-0.2-0.6,0-1l12.7-18.7C259.7,129,260.1,128.9,260.7,128.9z"/>
		</g>
		<g>
			<polygon class="st1" points="81.6,129.4 80.7,131.1 80.6,131.3 61.8,169.3 42.9,131.1 42.9,131.1 41.9,129.1 46.4,129.1 
				61.8,160.3 77.1,129.4 			"/>
			<polygon class="st1" points="77.1,129.4 77.1,129.4 77.1,129.4 			"/>
		</g>
		<g>
			<line class="st2" x1="42.9" y1="131.1" x2="42.9" y2="131.1"/>
			<polygon class="st2" points="231.5,99.3 231.5,99.3 218.1,72.1 202.7,103.3 163.1,23 128.9,92.2 112.1,58.6 77.1,129.4 
				77.1,129.4 77.1,129.4 81.6,129.4 112.1,67.6 128.9,101.1 163.1,32.1 202.7,112.3 218.1,81.2 227.9,101 232.3,101.1 			"/>
		</g>
	</g>
</g>
</svg>
