<?xml version="1.0" encoding="utf-8"?>
<!-- Generator: Adobe Illustrator 19.2.1, SVG Export Plug-In . SVG Version: 6.00 Build 0)  -->
<svg version="1.1" xmlns="http://www.w3.org/2000/svg" xmlns:xlink="http://www.w3.org/1999/xlink" x="0px" y="0px"
	 viewBox="0 0 306 106" style="enable-background:new 0 0 306 106;" xml:space="preserve">
<style type="text/css">
	.st0{fill:#222622;}
</style>
<g id="Layer_2">
</g>
<g id="Layer_1">
	<g>
		<g>
			<path class="st0" d="M94.6,68v-3.2c0-0.5,0.2-0.7,0.6-0.7h1.1c0.4,0,0.6,0.2,0.6,0.7v3.1c0,2.7,0.7,4.9,2.2,6.4
				c1.4,1.5,3.5,2.3,6.2,2.3h9.6c2.7,0,4.7-0.8,6.2-2.3c1.4-1.5,2.2-3.7,2.2-6.4v-4c0-2.5-1-4.5-3-6c-2-1.5-4.4-2.5-7.2-3.2
				c-2.8-0.7-5.6-1.3-8.4-2c-2.8-0.7-5.2-1.8-7.2-3.3c-2-1.5-3-3.7-3-6.3v-4.8c0-3.3,1-6,2.9-7.9c1.9-2,4.6-3,7.8-3h9.6
				c3.3,0,5.9,1,7.8,3c1.9,2,2.9,4.6,2.9,7.9v2.4c0,0.5-0.2,0.7-0.6,0.7H124c-0.4,0-0.6-0.2-0.6-0.7v-2.3c0-2.7-0.7-4.9-2.2-6.4
				c-1.4-1.5-3.5-2.3-6.2-2.3h-9.6c-2.7,0-4.7,0.8-6.2,2.3c-1.4,1.5-2.2,3.7-2.2,6.4V43c0,4,3.4,6.7,10.1,8.2c2.8,0.6,5.6,1.2,8.5,2
				c2.8,0.7,5.2,2,7.2,3.7c2,1.7,3,4,3,6.9V68c0,3.3-1,6-2.9,7.9c-2,2-4.6,3-7.8,3h-9.6c-3.3,0-5.9-1-7.8-3
				C95.6,73.9,94.6,71.3,94.6,68z"/>
			<path class="st0" d="M141.3,40.2h-5.3c-0.5,0-0.7-0.2-0.7-0.6v-1c0-0.4,0.2-0.6,0.7-0.6h5.3c0.5,0,0.7-0.2,0.7-0.6v-6.2
				c0-0.5,0.2-0.7,0.6-0.7h1.1c0.4,0,0.6,0.2,0.6,0.7v6.2c0,0.4,0.2,0.6,0.7,0.6h10.3c0.5,0,0.7,0.2,0.7,0.6v1
				c0,0.4-0.2,0.6-0.7,0.6h-10.3c-0.5,0-0.7,0.2-0.7,0.6v27.2c0,2.7,0.8,4.8,2.4,6.3c1.6,1.5,3.7,2.2,6.4,2.2h3
				c0.5,0,0.7,0.2,0.7,0.6v1c0,0.4-0.2,0.6-0.7,0.6h-3c-3.3,0-6-1-8.1-2.9c-2.1-1.9-3.1-4.5-3.1-7.8V40.9
				C142.1,40.5,141.8,40.2,141.3,40.2z"/>
			<path class="st0" d="M183.8,78.9H177c-3.3,0-5.9-1-7.8-3c-2-2-2.9-4.6-2.9-7.9V48.9c0-3.3,1-6,2.9-7.9c1.9-2,4.6-3,7.8-3h6.8
				c3.3,0,5.9,1,7.8,3c1.9,2,2.9,4.6,2.9,7.9V68c0,3.3-1,6-2.9,7.9C189.7,77.9,187.1,78.9,183.8,78.9z M177,76.6h6.8
				c2.7,0,4.7-0.8,6.2-2.3c1.4-1.5,2.2-3.7,2.2-6.4V49c0-2.7-0.7-4.9-2.2-6.4c-1.4-1.5-3.5-2.3-6.2-2.3H177c-2.7,0-4.7,0.8-6.2,2.3
				c-1.4,1.5-2.2,3.7-2.2,6.4v18.9c0,2.7,0.7,4.9,2.2,6.4C172.3,75.8,174.3,76.6,177,76.6z"/>
			<path class="st0" d="M228.6,77.3v1c0,0.4-0.2,0.6-0.7,0.6h-11.4c-3.3,0-5.9-1-7.8-3c-2-2-2.9-4.6-2.9-7.9V48.9c0-3.3,1-6,2.9-7.9
				c1.9-2,4.6-3,7.8-3h11.4c0.5,0,0.7,0.2,0.7,0.6v1c0,0.4-0.2,0.6-0.7,0.6h-11.4c-2.7,0-4.7,0.8-6.2,2.3c-1.4,1.5-2.2,3.7-2.2,6.4
				v18.9c0,2.7,0.7,4.9,2.2,6.4c1.4,1.5,3.5,2.3,6.2,2.3h11.4C228.4,76.6,228.6,76.8,228.6,77.3z"/>
			<path class="st0" d="M239.6,78.9h-1.1c-0.4,0-0.6-0.2-0.6-0.7V23.3c0-0.5,0.2-0.7,0.6-0.7h1.1c0.4,0,0.6,0.2,0.6,0.7v54.9
				C240.2,78.6,240,78.9,239.6,78.9z M260.7,38h1.1c0.6,0,0.7,0.2,0.3,0.7l-12.7,18.8v0.3l14.4,20.3c0.4,0.5,0.3,0.7-0.2,0.7h-1.4
				c-0.6,0-1.1-0.2-1.4-0.7l-14-20c-0.2-0.3-0.2-0.6,0-1l12.7-18.7C259.7,38.2,260.1,38,260.7,38z"/>
		</g>
		<g>
			<polygon class="st0" points="81.6,38.5 80.7,40.3 80.6,40.4 61.8,78.5 42.9,40.2 42.9,40.2 41.9,38.3 46.4,38.3 61.8,69.4 
				77.1,38.5 			"/>
			<polygon class="st0" points="77.1,38.5 77.1,38.5 77.1,38.5 			"/>
		</g>
	</g>
</g>
</svg>
